<svg width="162" height="57" viewBox="0 0 162 57" fill="none" xmlns="http://www.w3.org/2000/svg">
<g clip-path="url(#clip0_108_37)">
<path d="M161.938 32.7986C161.938 33.3904 161.729 33.9 161.306 34.3192C160.886 34.7384 160.377 34.948 159.785 34.948C159.193 34.948 158.684 34.7384 158.269 34.3192C157.845 33.8959 157.636 33.3904 157.636 32.7986C157.636 32.2027 157.845 31.6973 158.269 31.2781C158.684 30.8589 159.193 30.6493 159.785 30.6493C160.377 30.6493 160.882 30.8589 161.306 31.2781C161.729 31.6973 161.938 32.2027 161.938 32.7986Z" fill="#3377CC"/>
<path d="M161.569 32.3794C161.569 32.9712 161.359 33.4808 160.936 33.9C160.516 34.3192 160.007 34.5288 159.415 34.5288C158.823 34.5288 158.314 34.3192 157.899 33.9C157.475 33.4767 157.266 32.9712 157.266 32.3794C157.266 31.7836 157.475 31.2781 157.899 30.8589C158.314 30.4397 158.823 30.2301 159.415 30.2301C160.007 30.2301 160.512 30.4397 160.936 30.8589C161.359 31.2781 161.569 31.7836 161.569 32.3794Z" fill="#3377CC"/>
<path d="M148.488 35.7617C144.842 35.7617 142.114 33.9206 141 30.711L140.975 30.6411C140.922 30.4685 139.907 26.9548 141.629 23.9343C142.66 22.1302 144.44 20.9014 146.926 20.2849C147.834 20.0589 148.714 19.9438 149.54 19.9438C151.886 19.9438 153.9 20.8849 155.371 22.6644C156.76 24.3452 157.315 26.3589 157.245 26.7206C157.249 26.7411 157.262 26.7986 157.274 26.8644C157.348 27.2754 157.521 28.2329 156.345 28.6644C155.334 29.0343 149.141 29.6754 147.214 29.8644C147.419 30.4192 147.904 31.3069 148.927 31.3726C149.158 31.3891 149.359 31.3932 149.54 31.3932C150.538 31.3932 150.695 31.2041 150.896 30.9658L150.921 30.9329C150.966 30.8754 151.003 30.8137 151.036 30.7521C151.286 30.3206 151.586 29.9548 152.716 29.8521C153.982 29.737 155.951 29.5028 155.971 29.5028L156.058 29.4904L156.14 29.5151C156.197 29.5315 156.695 29.7 156.912 30.2055C157.069 30.5671 157.032 30.9781 156.801 31.4343C156.271 32.4863 154.664 35.6918 148.611 35.7493L148.488 35.7617ZM149.022 24.1562C148.89 24.1562 148.751 24.1685 148.607 24.1891C147.814 24.3041 147.267 24.5877 146.975 25.0356C146.733 25.4096 146.708 25.837 146.729 26.1288L150.904 25.5945C150.715 25.0521 150.226 24.1562 149.022 24.1562Z" fill="#3377CC"/>
<path d="M149.54 20.3548C155.433 20.3548 156.888 26.3877 156.838 26.6425C156.781 26.9343 157.311 27.8712 156.197 28.2822C155.084 28.689 146.675 29.511 146.675 29.511C146.675 29.511 147.086 31.6726 148.895 31.7918C149.133 31.8082 149.347 31.8123 149.536 31.8123C150.769 31.8123 150.978 31.5082 151.233 31.2041C151.525 30.8507 151.471 30.3863 152.749 30.2712C154.036 30.1521 156.017 29.9178 156.017 29.9178C156.017 29.9178 156.958 30.2096 156.432 31.2616C155.901 32.3137 154.385 35.2932 148.603 35.3507C148.562 35.3507 148.525 35.3507 148.484 35.3507C142.8 35.3507 141.53 30.9658 141.358 30.5014C141.358 30.5014 139.023 22.6726 147.025 20.6877C147.945 20.4575 148.78 20.3548 149.54 20.3548ZM146.384 26.5849L151.41 25.9438C151.41 25.9438 151.11 23.7452 149.022 23.7452C148.874 23.7452 148.714 23.7575 148.545 23.7822C145.681 24.189 146.384 26.5849 146.384 26.5849ZM149.54 19.5329C148.685 19.5329 147.773 19.6521 146.832 19.8863C144.23 20.5315 142.364 21.826 141.275 23.7329C139.463 26.9055 140.532 30.5795 140.577 30.7356L140.585 30.7603L140.593 30.7849L140.614 30.8466C141.785 34.2329 144.658 36.1726 148.488 36.1726H148.615C154.923 36.111 156.612 32.737 157.171 31.6315C157.525 30.9206 157.434 30.3822 157.29 30.0534C157.011 29.3918 156.386 29.1699 156.263 29.1329L156.243 29.1247C156.341 29.1 156.419 29.0753 156.485 29.0548C157.48 28.689 157.882 27.9288 157.681 26.7945C157.673 26.7534 157.664 26.7164 157.66 26.6836C157.677 25.9808 156.999 23.9877 155.692 22.4055C154.138 20.5274 152.01 19.5329 149.54 19.5329ZM147.16 25.6562C147.189 25.5206 147.238 25.3808 147.321 25.2534C147.547 24.9123 147.999 24.6904 148.664 24.5959C148.788 24.5795 148.911 24.5671 149.022 24.5671C149.688 24.5671 150.074 24.9 150.3 25.2534L147.16 25.6562ZM147.83 30.2178C148.743 30.1274 150.021 29.9918 151.319 29.8397C151.003 30.0411 150.826 30.2959 150.682 30.5507C150.653 30.6 150.625 30.6534 150.604 30.674L150.58 30.7069C150.44 30.8753 150.345 30.9863 149.54 30.9863C149.367 30.9863 149.166 30.9781 148.952 30.9658C148.41 30.9329 148.056 30.5836 147.83 30.2178Z" fill="#3377CC"/>
<path d="M133.779 34.4096C132.366 34.4096 130.056 34.0151 129.958 33.9986C129.925 33.9945 128.827 33.8343 128.466 32.5356C128.174 31.4918 125.647 20.9959 125.54 20.548C125.523 20.4945 125.359 19.8617 125.725 19.3808C125.885 19.1712 126.201 18.9206 126.81 18.9206C126.879 18.9206 126.949 18.9247 127.027 18.9288L130.258 19.1671L130.332 19.2082C130.467 19.2781 131.663 19.9315 131.663 20.8562C131.663 21.2589 132.321 24.4932 132.879 27.1151L135.247 20.8274C135.267 20.774 135.703 19.7425 137.043 19.7425C137.084 19.7425 137.125 19.7425 137.17 19.7466C138.345 19.8082 139.997 20.0343 140.067 20.0466C140.145 20.0589 140.766 20.174 141.074 20.6712C141.197 20.8726 141.312 21.2096 141.16 21.6822C140.869 22.6274 136.315 32.8028 136.122 33.2343C136.101 33.2959 135.785 34.0685 134.552 34.3439C134.363 34.3891 134.108 34.4096 133.779 34.4096Z" fill="#3377CC"/>
<path d="M126.81 19.3315C126.867 19.3315 126.929 19.3356 126.995 19.3397L130.147 19.574C130.147 19.574 131.256 20.1575 131.256 20.8562C131.256 21.5548 132.777 28.5699 132.777 28.5699L135.637 20.9754C135.637 20.9754 135.97 20.1534 137.047 20.1534C137.079 20.1534 137.116 20.1534 137.153 20.1575C138.325 20.2151 140.014 20.4534 140.014 20.4534C140.014 20.4534 141.07 20.626 140.774 21.5589C140.486 22.4959 135.752 33.0699 135.752 33.0699C135.752 33.0699 135.518 33.711 134.47 33.9452C134.293 33.9822 134.055 33.9986 133.775 33.9986C132.382 33.9986 130.023 33.5918 130.023 33.5918C130.023 33.5918 129.148 33.4726 128.86 32.4247C128.569 31.3726 125.938 20.4493 125.938 20.4493C125.938 20.4493 125.622 19.3315 126.81 19.3315ZM126.81 18.5096C126.029 18.5096 125.61 18.8466 125.396 19.1343C124.94 19.7343 125.096 20.4699 125.145 20.6548C125.289 21.2466 127.779 31.5986 128.071 32.6466C128.412 33.8754 129.374 34.3274 129.9 34.4055C130.106 34.4425 132.37 34.8206 133.779 34.8206C134.141 34.8206 134.425 34.7959 134.651 34.7466C135.962 34.4548 136.406 33.637 136.508 33.4027C136.997 32.3137 141.271 22.7548 141.563 21.7973C141.756 21.1849 141.6 20.7288 141.432 20.4534C141.037 19.8123 140.297 19.6644 140.153 19.6397C140.063 19.6274 138.39 19.3973 137.199 19.3356C137.145 19.3315 137.096 19.3315 137.051 19.3315C135.76 19.3315 135.078 20.1699 134.877 20.6671L132.999 25.6521C132.53 23.4041 132.095 21.2137 132.082 20.8521C132.082 19.7178 130.792 18.9822 130.529 18.8466L130.377 18.7685L130.208 18.7562L127.056 18.5219C126.974 18.5137 126.892 18.5096 126.81 18.5096Z" fill="#3377CC"/>
<path d="M122.992 33.9904C121.882 33.9904 120.37 33.8836 120.304 33.8795L120.251 33.8753L120.201 33.8589C120.152 33.8425 119.137 33.489 118.895 32.5726C118.258 33.1315 116.959 33.9123 114.67 33.9123H114.473C111.629 33.8589 110.232 32.926 109.558 32.1493C108.789 31.2658 108.489 30.0904 108.666 28.6521C109.159 24.6616 113.178 24.3822 116.112 24.1808C117.497 24.0863 118.932 23.9877 118.977 23.4822C119.001 23.211 118.944 23.0055 118.8 22.8452C118.574 22.5945 118.118 22.4548 117.555 22.4548C116.84 22.4548 116.207 22.6808 115.973 22.8945C115.216 23.5849 114.148 23.663 113.412 23.663C113.256 23.663 113.112 23.6589 112.985 23.6548L112.862 23.6507C112.204 23.6301 111.275 23.5192 111.234 23.5151L111.181 23.5068L111.132 23.4863C111.053 23.4534 110.351 23.1616 110.092 22.5041C109.948 22.1425 109.973 21.7397 110.162 21.337C110.712 20.174 112.356 18.7068 115.171 18.3986C115.595 18.3534 116.063 18.3288 116.564 18.3288C119.014 18.3288 121.969 18.8795 122.889 19.5082C122.984 19.5699 123.078 19.6315 123.173 19.6931C124.225 20.3753 125.314 21.0822 125.215 23.9918C125.112 26.9096 124.66 32.4863 124.656 32.5397C124.664 33.0863 124.27 33.9699 123.156 33.9863L122.992 33.9904ZM118.467 27.6493C117.012 27.9904 115.508 28.4507 115.286 28.6932C114.966 29.1041 115.122 29.6507 115.295 29.8973C115.434 30.0986 115.767 30.2178 116.178 30.2178C116.449 30.2178 116.741 30.1685 117.008 30.074C117.616 29.8562 118.27 29.4658 118.467 27.6493Z" fill="#3377CC"/>
<path d="M116.564 18.7438C119.006 18.7438 121.858 19.3027 122.659 19.8493C123.764 20.5932 124.907 21.0452 124.804 23.9795C124.701 26.9178 124.245 32.511 124.245 32.511C124.245 32.511 124.258 33.563 123.148 33.5795C123.095 33.5795 123.041 33.5795 122.988 33.5795C121.878 33.5795 120.329 33.4685 120.329 33.4685C120.329 33.4685 119.31 33.1274 119.252 32.2521C119.232 31.8986 119.047 31.8 119.047 31.8C119.047 31.8 117.974 33.5055 114.662 33.5055C114.6 33.5055 114.534 33.5055 114.473 33.5055C113.301 33.4849 108.501 33.3123 109.069 28.7055C109.796 22.8 119.178 25.7589 119.384 23.5192C119.482 22.4384 118.537 22.0438 117.551 22.0438C116.811 22.0438 116.047 22.2658 115.689 22.5904C115.052 23.1699 114.103 23.2521 113.408 23.2521C113.199 23.2521 113.014 23.2438 112.866 23.2397C112.221 23.2192 111.279 23.1082 111.279 23.1082C111.279 23.1082 110.014 22.6069 110.527 21.5178C111.041 20.4329 112.595 19.1014 115.208 18.8137C115.64 18.7644 116.096 18.7438 116.564 18.7438ZM116.182 30.6288C116.503 30.6288 116.84 30.5712 117.148 30.4603C117.953 30.1726 118.792 29.5932 118.919 27.1233C118.919 27.1233 115.397 27.8836 114.966 28.4343C114.534 28.989 114.674 29.7206 114.958 30.1315C115.2 30.4767 115.669 30.6288 116.182 30.6288ZM116.564 17.9219C116.047 17.9219 115.566 17.9466 115.126 17.9918C112.143 18.3206 110.388 19.9027 109.792 21.1603C109.492 21.8014 109.582 22.3274 109.71 22.6521C110.034 23.4699 110.885 23.8274 110.979 23.8685L111.078 23.9096L111.185 23.9219C111.226 23.926 112.171 24.0411 112.845 24.0575L112.973 24.0616C113.063 24.0658 113.166 24.0658 113.277 24.0699C110.934 24.4932 108.633 25.5411 108.255 28.5986C108.066 30.1562 108.395 31.4425 109.245 32.4164C109.973 33.2548 111.469 34.2658 114.464 34.3192C114.534 34.3192 114.6 34.3192 114.67 34.3192C116.651 34.3192 117.945 33.7521 118.734 33.2055C119.088 33.7726 119.679 34.1096 120.07 34.2411L120.169 34.274L120.271 34.2822C120.337 34.2863 121.866 34.3973 122.988 34.3973H123.156C124.549 34.3767 125.055 33.2918 125.067 32.5438C125.104 32.0836 125.527 26.8192 125.626 24.0082C125.733 20.8644 124.492 20.0589 123.399 19.3521C123.304 19.2904 123.214 19.2329 123.119 19.1671C122.026 18.4233 118.845 17.9219 116.564 17.9219ZM115.101 23.8438C115.5 23.7164 115.903 23.511 116.248 23.1986C116.4 23.0589 116.942 22.8658 117.555 22.8658C118.077 22.8658 118.389 23.0055 118.496 23.1247C118.521 23.1534 118.578 23.2151 118.57 23.3959C118.258 23.6219 116.955 23.7123 116.079 23.7699C115.771 23.7904 115.442 23.8151 115.101 23.8438ZM115.59 28.9767C115.878 28.7836 116.889 28.4671 117.966 28.1918C117.715 29.3836 117.201 29.5644 116.869 29.6836C116.651 29.7616 116.404 29.8027 116.182 29.8027C115.858 29.8027 115.673 29.7164 115.636 29.6589C115.553 29.5438 115.438 29.2192 115.59 28.9767Z" fill="#3377CC"/>
<path d="M93.3 34.4795C93.1315 34.4795 91.6151 34.4219 90.6123 32.4206C90.0904 31.3726 86.5274 23.0795 86.3795 22.7301C86.3507 22.6685 86.1123 22.0808 86.4164 21.411C86.6753 20.8356 87.2425 20.4041 88.0973 20.1247C88.4918 19.9932 88.5493 19.9767 88.6562 19.9767H88.7014L88.7795 19.989L88.8247 19.9932C88.9069 19.9932 89.0795 19.9808 89.4452 19.9315L89.474 19.9274H89.5233C89.7452 19.9274 90.8877 20.0343 91.4753 22.1096C91.7219 22.9808 92.8397 25.5534 93.5425 27.1397L94.2123 22.2986C94.2247 21.9986 94.4014 19.4014 96.4644 19.1753C97.6151 19.048 98.4206 18.9986 98.4699 18.9986C98.4699 18.9986 98.5151 18.9945 98.5932 18.9945C99.3945 18.9945 100.299 19.3685 100.471 20.4123L102.579 25.9274L103.516 19.7096C103.537 19.4795 103.722 18.489 105.399 18.2959C106.878 18.1274 107.795 18.0699 107.869 18.0617C107.869 18.0617 107.918 18.0575 107.988 18.0575C108.234 18.0575 108.695 18.111 109.015 18.4644C109.249 18.7233 109.344 19.0767 109.299 19.5082C109.184 20.626 107.248 29.6219 107.166 30.0041C107.137 30.1151 106.553 32.3877 104.61 33.2343L104.552 33.2589L102.193 33.4973L102.115 33.4726C102.045 33.4521 100.418 32.9384 99.5754 30.8466C99.2507 30.0329 98.5603 28.163 98.0589 26.7822L97.5822 30.8178C97.5575 31.7753 96.9658 33.7767 94.9479 34.2658L94.9069 34.274L93.3411 34.4836L93.3 34.4795Z" fill="#3377CC"/>
<path d="M107.984 18.4685C108.247 18.4685 108.982 18.5507 108.884 19.463C108.768 20.5726 106.755 29.9178 106.755 29.9178C106.755 29.9178 106.216 32.0836 104.437 32.8562L102.222 33.0781C102.222 33.0781 100.722 32.626 99.9452 30.6945C99.4068 29.3548 97.8411 25.0192 97.8411 25.0192L97.1589 30.7726C97.1589 30.7726 97.0849 33.3247 94.837 33.8671L93.2959 34.0726C93.2959 34.0726 93.2959 34.0726 93.2918 34.0726C93.226 34.0726 91.8781 34.0479 90.9699 32.2397C90.4479 31.1918 86.7452 22.5699 86.7452 22.5699C86.7452 22.5699 86.1452 21.189 88.2123 20.5151C88.5288 20.4123 88.6027 20.3877 88.6438 20.3877C88.6767 20.3877 88.6932 20.4041 88.8123 20.4041C88.9192 20.4041 89.1164 20.3918 89.4904 20.3384C89.4904 20.3384 89.4986 20.3384 89.511 20.3384C89.663 20.3384 90.5548 20.4164 91.0685 22.2205C91.4425 23.5562 93.7438 28.6151 93.7438 28.6151L94.6151 22.3356C94.6151 22.3356 94.689 19.7836 96.5014 19.5822C97.6685 19.4507 98.4863 19.4055 98.4863 19.4055C98.4863 19.4055 98.5233 19.4014 98.5849 19.4014C98.9055 19.4014 99.9206 19.4836 100.064 20.5151L102.748 27.5301L103.919 19.7548C103.919 19.7548 103.919 18.8795 105.44 18.7027C106.96 18.5301 107.893 18.4726 107.893 18.4726C107.893 18.4726 107.93 18.4685 107.984 18.4685ZM107.984 17.6466C107.91 17.6466 107.852 17.6507 107.823 17.6548C107.688 17.663 106.779 17.7247 105.345 17.889C103.644 18.0863 103.138 19.0685 103.097 19.6767L102.399 24.3205L100.862 20.3014C100.664 19.2534 99.7849 18.5836 98.5849 18.5836C98.5069 18.5836 98.4534 18.5877 98.4288 18.5877C98.3219 18.5959 97.5247 18.6411 96.411 18.7685C94.4466 18.9863 93.8466 21.0452 93.7973 22.2658L93.3288 25.6479C92.6877 24.1767 92.0342 22.611 91.8658 22.0027C91.2123 19.6973 89.9055 19.5205 89.5192 19.5205C89.4534 19.5205 89.4205 19.5247 89.4205 19.5247H89.4123L89.3795 19.5288C89.0219 19.5781 88.874 19.5863 88.8206 19.5863C88.7753 19.5781 88.7178 19.5699 88.6438 19.5699C88.4712 19.5699 88.3767 19.6027 87.9822 19.7301L87.9575 19.7384C86.9877 20.0548 86.3425 20.5603 86.0342 21.2466C85.6603 22.0767 85.9603 22.8164 85.9973 22.8986C86.1493 23.2479 89.7123 31.5534 90.2384 32.6096C91.3521 34.8329 93.0986 34.8945 93.2959 34.8945H93.3493L93.4068 34.8863L94.9479 34.6808L94.989 34.6767L95.0301 34.6685C97.2616 34.1301 97.9315 31.9521 97.9808 30.8384L98.2521 28.5452C98.6137 29.5274 98.9712 30.4849 99.1808 31.0068C100.093 33.2795 101.905 33.8507 101.979 33.8712L102.136 33.9164L102.3 33.9L104.515 33.6781L104.642 33.6658L104.762 33.6123C106.886 32.6877 107.523 30.2219 107.548 30.1192L107.552 30.1069L107.556 30.0945C107.762 29.1329 109.582 20.6753 109.697 19.5534C109.771 18.8671 109.529 18.4356 109.311 18.1932C108.892 17.7164 108.3 17.6466 107.984 17.6466Z" fill="#3377CC"/>
<path d="M84.0206 34.7795C83.1493 34.7795 82.2494 34.6767 82.2124 34.6726C82.1302 34.6603 80.7452 34.4096 79.7836 32.9425C79.4302 32.4041 78.448 30.7439 77.9795 29.9425L77.4411 30.4233L77.3672 32.3548C77.3178 33.1562 76.8493 34.648 75.4151 34.648C75.3576 34.648 75.3 34.6439 75.2384 34.6397L73.5617 34.6274C73.3809 34.611 72.0699 34.463 71.4288 33.6493C71.1576 33.3041 71.0425 32.8767 71.1 32.4206L71.4 16.8617C71.4576 16.0069 72 14.4329 73.6562 14.4329H73.7343C74.5315 14.4575 74.9178 14.5315 75.1192 14.626C76.0603 14.6918 77.6548 15.2507 77.622 17.0055C77.6055 17.6918 77.5603 21.4356 77.5356 23.3589L79.4507 21.0986C79.4877 21.0534 80.474 19.8534 81.8672 19.8534H81.9165C83.1494 19.8781 84.2343 19.9767 84.2795 19.9808L84.3329 19.9849L84.3822 20.0055C84.485 20.0425 85.4096 20.4041 85.6603 21.2137C85.7589 21.5343 85.7877 22.0439 85.348 22.6603L85.3315 22.6849L82.4425 25.7836L86.2521 31.8575L86.2603 31.8781C86.3137 31.9891 86.7822 32.9918 86.3754 33.8219C86.2233 34.1343 85.8822 34.537 85.1302 34.6932C84.8589 34.7507 84.485 34.7795 84.0206 34.7795Z" fill="#3377CC"/>
<path d="M73.6644 14.8438C73.685 14.8438 73.7096 14.8438 73.7302 14.8438C74.9014 14.8767 75.0041 15.0288 75.0041 15.0288C75.0041 15.0288 77.2562 15.0945 77.2192 16.9932C77.1987 17.9343 77.1206 24.4932 77.1206 24.4932L79.7754 21.3617C79.7754 21.3617 80.6672 20.2644 81.8754 20.2644C81.8877 20.2644 81.9041 20.2644 81.9165 20.2644C83.1494 20.2891 84.2507 20.3877 84.2507 20.3877C84.2507 20.3877 86.0055 21.0329 85.0233 22.4219L81.937 25.7301L85.9028 32.0507C85.9028 32.0507 86.8151 33.9164 85.0562 34.2863C84.7768 34.3438 84.4069 34.3644 84.0247 34.3644C83.1658 34.3644 82.2617 34.2617 82.2617 34.2617C82.2617 34.2617 81.0083 34.048 80.1288 32.7164C79.6685 32.0137 78.0822 29.3055 78.0822 29.3055L77.0384 30.2343L76.9603 32.3384C76.9603 32.3384 76.8452 34.237 75.4192 34.237C75.374 34.237 75.3247 34.237 75.2795 34.2329L73.574 34.2164C73.574 34.2164 71.3014 33.9986 71.5192 32.4493L71.8192 16.8699C71.8151 16.874 71.9548 14.8438 73.6644 14.8438ZM73.6644 14.0219C71.7041 14.0219 71.063 15.8507 70.9973 16.8164V16.837V16.8575L70.6973 32.3959C70.6315 32.9589 70.7754 33.4767 71.1124 33.9082C71.8603 34.8575 73.3274 35.026 73.4918 35.0384L73.5288 35.0425H73.5658L75.2425 35.0548C75.3041 35.0589 75.3617 35.063 75.4192 35.063C77.1617 35.063 77.7247 33.3164 77.7781 32.3918L77.8439 30.6206L77.8768 30.5877C78.3863 31.4507 79.1384 32.7123 79.4384 33.1726C80.4987 34.7836 82.0521 35.0671 82.1179 35.0754L82.1384 35.0795L82.1589 35.0836C82.1959 35.0877 83.1206 35.1904 84.0165 35.1904C84.5137 35.1904 84.9042 35.1575 85.2124 35.0959C86.1288 34.9028 86.5521 34.3973 86.7452 34.0027C87.2384 32.9959 86.6918 31.8247 86.6302 31.6973L86.6096 31.6603L86.585 31.6233L82.9562 25.837L85.611 22.9891L85.648 22.948L85.6809 22.9027C86.2151 22.1466 86.1781 21.5014 86.0507 21.0945C85.7384 20.0959 84.6452 19.6644 84.522 19.6192L84.4192 19.5822L84.3124 19.574C84.2672 19.5699 83.1699 19.4712 81.9247 19.4466H81.8672C80.3096 19.4466 79.2452 20.7041 79.1261 20.848L77.9589 22.2247C77.9836 20.2356 78.0165 17.5849 78.0329 17.0178C78.074 15.1315 76.4425 14.3343 75.222 14.2233C74.9343 14.1123 74.4904 14.0466 73.7466 14.026C73.722 14.0219 73.6932 14.0219 73.6644 14.0219Z" fill="#3377CC"/>
<path d="M61.7343 36.3123C58.0315 36.3123 55.3521 34.1301 54.3863 30.3247C53.8357 28.1589 54.148 25.9274 55.2535 24.2055C56.4041 22.4096 58.3028 21.2548 60.9 20.774C61.7425 20.6178 62.5398 20.5397 63.2754 20.5397C67.3891 20.5397 68.7247 22.9562 69.2959 23.9877L69.3863 24.1521C69.5877 24.5055 69.6288 24.8795 69.5055 25.2329C69.2302 26.0343 68.2151 26.4699 68.1 26.5151L68.0507 26.5356L67.9973 26.5438C67.9973 26.5438 67.5576 26.6014 65.9178 26.7822C65.8439 26.7904 65.7658 26.7945 65.6836 26.7945C64.8822 26.7945 63.8877 26.3754 63.4562 25.4343C63.3617 25.2247 63.1151 25.1219 62.7288 25.1219C62.4535 25.1219 62.2233 25.1795 62.2192 25.1795C61.0439 25.5082 60.6247 26.4699 60.5507 26.6507C60.522 26.8562 60.485 27.0575 60.448 27.263C60.2014 28.6438 59.9713 29.9507 61.4877 31.4507C61.7836 31.7425 62.2398 31.911 62.737 31.911C63.2589 31.911 63.7439 31.7301 64.0398 31.4219C64.2576 31.1959 64.3644 30.9164 64.3521 30.5877C64.3069 29.3137 66.5466 29.1452 66.9946 29.1247C66.9905 29.1247 68.0507 29.026 68.5028 28.9685C68.5398 28.9644 68.5768 28.9603 68.6137 28.9603C69.0699 28.9603 69.6042 29.2685 69.9165 29.7123C70.2247 30.1521 70.2905 30.6863 70.1014 31.2123L70.0069 31.4877C69.448 33.1233 68.6795 35.3671 63.4233 36.1726C62.848 36.2671 62.2768 36.3123 61.7343 36.3123Z" fill="#3377CC"/>
<path d="M63.2795 20.9466C67.3891 20.9466 68.5315 23.474 69.0329 24.3534C69.6494 25.4384 67.948 26.1329 67.948 26.1329C67.948 26.1329 67.5124 26.1904 65.8809 26.3671C65.8192 26.3754 65.7576 26.3795 65.6918 26.3795C65.0589 26.3795 64.2 26.0507 63.8425 25.2617C63.637 24.8096 63.1439 24.7069 62.737 24.7069C62.4 24.7069 62.1288 24.7767 62.1288 24.7767C60.6041 25.2041 60.1644 26.548 60.1644 26.548C59.9261 28.1795 59.2891 29.8397 61.2124 31.7384C61.611 32.1288 62.1822 32.3178 62.7494 32.3178C63.785 32.3178 64.8124 31.7014 64.7754 30.5712C64.7425 29.6384 67.0274 29.5315 67.0274 29.5315C67.0274 29.5315 68.1042 29.4329 68.5685 29.3754C68.585 29.3712 68.6055 29.3712 68.6261 29.3712C69.1192 29.3712 70.1014 30.037 69.7274 31.0767C69.1562 32.6959 68.6836 34.9562 63.374 35.7699C62.7946 35.8603 62.2521 35.9014 61.7384 35.9014C57.5466 35.9014 55.5165 33.0863 54.7891 30.2219C53.9713 27.0164 54.9658 22.2863 60.9781 21.1767C61.8329 21.0164 62.5973 20.9466 63.2795 20.9466ZM63.2795 20.1247C62.5192 20.1247 61.6973 20.2069 60.8302 20.3671C58.1548 20.8603 56.1083 22.1096 54.9124 23.9795C53.7494 25.8 53.4124 28.1507 53.9918 30.4233C55.0069 34.426 57.8302 36.7192 61.7384 36.7192C62.3014 36.7192 62.8932 36.6699 63.5014 36.5795C69.0042 35.737 69.8507 33.2589 70.4096 31.6233C70.4425 31.5288 70.4713 31.4384 70.5041 31.348C70.7384 30.6945 70.6562 30.0288 70.2658 29.474C69.8754 28.9192 69.2179 28.5452 68.6261 28.5452C68.5685 28.5452 68.5192 28.5493 68.4658 28.5534C68.0466 28.6069 67.1096 28.6932 66.9658 28.7055C66.2178 28.7425 63.8959 28.9849 63.9494 30.5918C63.9576 30.8055 63.8918 30.9822 63.7521 31.126C63.5343 31.348 63.148 31.4877 62.7452 31.4877C62.3548 31.4877 62.0055 31.3644 61.7836 31.1466C60.4192 29.7986 60.6124 28.7055 60.8589 27.3247C60.8918 27.1315 60.9288 26.9384 60.9576 26.7493C61.0398 26.5562 61.4055 25.8288 62.3302 25.5658C62.3672 25.5575 62.5357 25.5206 62.7329 25.5206C62.9713 25.5206 63.074 25.574 63.0863 25.5863C63.5918 26.6959 64.7589 27.1932 65.6877 27.1932C65.7863 27.1932 65.8809 27.189 65.9754 27.1767C67.5904 27 68.0384 26.9425 68.0548 26.9384L68.1617 26.926L68.2603 26.8849C68.4781 26.7945 69.5713 26.3055 69.8959 25.3562C70.0562 24.8877 70.0069 24.3945 69.7439 23.9384C69.7151 23.889 69.6863 23.8356 69.6535 23.7781C69.1069 22.7877 67.6357 20.1247 63.2795 20.1247Z" fill="#3377CC"/>
<path d="M22.1918 37.0192C21.4891 36.9699 20.1576 36.4438 20.1493 34.8L19.6808 19.2205V19.2C19.7343 18.4931 20.3137 17.1082 22.1137 16.8986C22.6356 16.837 23.1041 16.8041 23.5028 16.8041C24 16.8041 24.2219 16.8534 24.263 16.8616C24.9288 17.0219 26.1699 17.6671 26.1 18.9575C26.063 19.6192 26.1452 21.8384 26.2028 23.1658C26.9466 22.4548 28.2781 21.5507 30.2343 21.5507C30.4726 21.5507 30.7151 21.563 30.9576 21.5918C34.6398 22.0027 35.7699 25.1425 35.7411 26.1781C35.7165 27.0329 36.0658 34.4219 36.0658 34.4959C36.0452 35.1411 35.6548 36.3781 34.3356 36.6699L34.3028 36.6781L31.8987 36.8137L31.8658 36.8096C31.1219 36.7356 29.7288 36.1767 29.7822 34.5699C29.811 33.6863 29.6836 28.7055 29.6754 28.2863C29.6425 28.0932 29.3713 26.7329 28.2987 26.7329C28.2165 26.7329 28.1302 26.7411 28.0398 26.7534C26.9713 26.9342 26.4 27.5342 26.2973 28.5945C26.2603 29.0014 26.3384 32.2603 26.4 34.3479C26.4206 35.0671 25.9726 36.4932 24.1439 36.7685L22.2165 37.0068L22.1918 37.0192Z" fill="#3377CC"/>
<path d="M23.5069 17.2192C23.9795 17.2192 24.1685 17.2644 24.1685 17.2644C24.1685 17.2644 25.763 17.6466 25.6932 18.9411C25.6357 19.9356 25.8411 24.226 25.8411 24.226C25.8411 24.226 27.2754 21.9699 30.2384 21.9699C30.4562 21.9699 30.6822 21.9822 30.9165 22.0069C34.3439 22.389 35.3589 25.2986 35.3384 26.1781C35.3137 27.0534 35.663 34.5206 35.663 34.5206C35.663 34.5206 35.6137 35.9753 34.2535 36.2753L31.9151 36.411C31.9151 36.411 30.148 36.2384 30.2014 34.5945C30.2302 33.6534 30.0946 28.2616 30.0946 28.2616C30.0946 28.2616 29.8151 26.3342 28.3069 26.3342C28.2041 26.3342 28.0973 26.3425 27.9822 26.363C26.1946 26.663 25.9521 27.9904 25.8987 28.5699C25.8452 29.1493 26.0014 34.3767 26.0014 34.3767C26.0014 34.3767 26.0466 36.0822 24.0946 36.3781L22.2206 36.6123C22.2206 36.6123 20.5685 36.4973 20.5603 34.8041L20.0918 19.2329C20.0918 19.2329 20.2233 17.5315 22.163 17.3096C22.7548 17.2397 23.1904 17.2192 23.5069 17.2192ZM23.5069 16.3973C23.0918 16.3973 22.6069 16.4301 22.0685 16.4918C20.0055 16.7301 19.3357 18.3493 19.274 19.1671L19.2699 19.2123V19.2575L19.7384 34.8247C19.7466 36.6082 21.1932 37.3603 22.163 37.4301L22.2411 37.4342L22.3192 37.426L24.1932 37.1918H24.2055H24.2137C26.3261 36.8712 26.8398 35.1986 26.8192 34.3562C26.7452 31.8493 26.6836 28.9973 26.7124 28.6479C26.7987 27.7808 27.2302 27.3247 28.1178 27.1767C28.1836 27.1644 28.2452 27.1603 28.3069 27.1603C29.0014 27.1603 29.2315 28.1425 29.2726 28.3438C29.2891 28.9397 29.4041 33.7192 29.3795 34.5699C29.322 36.3411 30.8178 37.1301 31.8329 37.2288L31.8946 37.237L31.9562 37.2329L34.2946 37.0973L34.3603 37.0932L34.4261 37.0767C35.9918 36.7274 36.4521 35.2726 36.4767 34.5493V34.5164V34.4836C36.3781 32.4164 36.1315 26.8932 36.1521 26.1986C36.1809 25.0603 34.9644 21.6288 31.0028 21.189C30.7439 21.1603 30.485 21.1438 30.2343 21.1438C28.6315 21.1438 27.4192 21.7151 26.5767 22.3233C26.5274 20.9918 26.4781 19.4836 26.5069 18.9822C26.5932 17.4164 25.1384 16.6479 24.3535 16.4589C24.2959 16.4507 24.037 16.3973 23.5069 16.3973Z" fill="#3377CC"/>
<path d="M10.4672 35.8685C9.95345 35.8685 9.41099 35.8439 8.85208 35.7945C5.39181 35.4822 2.90962 34.1055 1.47948 31.7055C0.727425 30.4439 0.497288 29.4822 0.768521 28.7754C0.945233 28.3192 1.31099 28.0028 1.86167 27.8343L1.94386 27.8096L6.12743 28.2945C7.55345 28.5206 7.79181 29.2069 7.94797 29.6589C8.00962 29.8397 8.05071 29.9466 8.1288 30.0082C8.53975 30.3247 9.04934 30.5219 9.64523 30.5836C9.85071 30.6 10.0521 30.6082 10.2411 30.6082C11.8439 30.6082 11.8891 29.9754 11.9055 29.737C11.9137 29.6302 11.8562 29.0795 9.81373 28.2123L6.5877 27.0493C3.30003 25.8329 1.63564 23.8685 1.63564 21.2055C1.63564 19.8493 1.95208 18.674 2.57674 17.7082C3.57948 16.1425 5.22332 15.1644 7.46304 14.811C8.13701 14.7 8.82743 14.6466 9.52195 14.6466C9.96578 14.6466 10.4343 14.6671 10.9151 14.7041C14.3795 15.0165 16.7548 16.2945 17.9754 18.5055C18.4726 19.4055 18.9781 20.6548 18.5795 21.5096C18.448 21.7891 18.1644 22.1466 17.5398 22.2658L17.4781 22.2781L14.0918 21.8836L13.4425 21.826C12.1726 21.6411 12.0576 20.9343 11.9795 20.4699C11.9014 19.9849 11.8356 19.6028 10.3028 19.4671C10.2247 19.4589 10.1466 19.4589 10.0726 19.4589C9.13564 19.4589 8.57674 20.0014 8.52743 20.5069C8.51921 20.6014 8.58085 21.1356 10.648 22.0315L13.8699 23.1945C17.1411 24.411 18.8055 26.326 18.8219 28.8904C18.8425 30.6863 18.3124 32.1945 17.2521 33.374C15.7726 35.026 13.4918 35.8685 10.4672 35.8685Z" fill="#3377CC"/>
<path d="M9.52195 15.0575C9.96578 15.0575 10.4178 15.0781 10.8781 15.1151C14.1945 15.4151 16.4507 16.6027 17.6096 18.7027C18.448 20.2233 18.6781 21.6247 17.4535 21.863L14.1288 21.4767L13.4713 21.4192C11.3343 21.1027 13.6603 19.3521 10.3315 19.0603C10.2411 19.0521 10.1548 19.048 10.0685 19.048C8.89318 19.048 8.18222 19.7754 8.11647 20.4699C8.06304 21.0534 8.85208 21.7027 10.4836 22.4096C11.5644 22.8 12.6452 23.1904 13.7302 23.5808C16.8329 24.7356 18.3945 26.5069 18.411 28.8945C18.4315 30.6 17.9425 31.9973 16.948 33.0986C15.5425 34.6726 13.3809 35.4575 10.4672 35.4575C9.96167 35.4575 9.43564 35.4329 8.88907 35.3877C5.54797 35.0836 3.2014 33.7891 1.8329 31.4959C1.21236 30.4521 0.419205 28.7096 1.98496 28.2247L6.08222 28.7014C7.81236 28.9767 7.34386 29.9014 7.874 30.3288C8.35071 30.6986 8.93017 30.9206 9.60414 30.9904C9.83017 31.011 10.0439 31.0192 10.2411 31.0192C11.5603 31.0192 12.2548 30.6 12.3165 29.7658C12.3699 29.1617 11.5891 28.5165 9.974 27.8343C8.89318 27.4438 7.80825 27.0534 6.72743 26.663C3.60825 25.5082 2.05071 23.6877 2.05071 21.2055C2.05071 19.9274 2.33838 18.8384 2.92606 17.9301C3.86715 16.4589 5.40003 15.5548 7.5288 15.2137C8.16578 15.111 8.83565 15.0575 9.52195 15.0575ZM9.52195 14.2356C8.80688 14.2356 8.09181 14.2932 7.39318 14.4082C5.03838 14.7822 3.30003 15.8178 2.23153 17.4904C1.56578 18.5178 1.22469 19.7712 1.22469 21.2096C1.22469 24.0617 2.97948 26.1575 6.44386 27.4356L8.10825 28.0356L9.67811 28.6027C11.1699 29.2397 11.4535 29.6507 11.4987 29.7329C11.4822 29.8891 11.3672 30.2014 10.2452 30.2014C10.0685 30.2014 9.87948 30.1932 9.674 30.1767C9.18085 30.1233 8.76167 29.9712 8.40825 29.7041C8.39181 29.6671 8.36304 29.5849 8.34249 29.5274C8.11236 28.8658 7.73838 28.1384 6.21373 27.8959L6.19729 27.8918H6.18085L2.08359 27.4151L1.91099 27.3945L1.7466 27.4438C0.904137 27.7069 0.542493 28.2329 0.390438 28.6315C0.0698905 29.4658 0.312356 30.5425 1.13016 31.9192C2.63427 34.4384 5.22332 35.8808 8.81921 36.2096C9.39455 36.2589 9.94934 36.2836 10.4713 36.2836C13.6151 36.2836 16.0028 35.3959 17.5644 33.6493C18.6946 32.3959 19.2576 30.7932 19.237 28.8863C19.2206 26.137 17.4658 24.0904 14.0219 22.8123L12.2754 22.1795L10.7959 21.6452C9.33291 21.0082 9.00825 20.5973 8.95071 20.4986C9.00825 20.2315 9.38633 19.8658 10.0809 19.8658C10.1425 19.8658 10.2082 19.8699 10.274 19.874C11.1617 19.9521 11.4165 20.1288 11.4781 20.1822C11.5274 20.2274 11.548 20.3014 11.585 20.5315C11.6672 21.0452 11.8274 21.9986 13.3685 22.2247L13.3932 22.2288H13.4178L14.0672 22.2863L17.3795 22.6726L17.5069 22.6891L17.6302 22.6644C18.4233 22.5123 18.7932 22.0438 18.9658 21.6781C19.348 20.8644 19.1384 19.7301 18.3493 18.3C17.0589 15.9658 14.5767 14.6137 10.9726 14.2891C10.4548 14.2521 9.97811 14.2356 9.52195 14.2356Z" fill="#3377CC"/>
<path d="M44.8274 36.4192C42.4438 36.4192 40.5616 35.6137 39.2343 34.0233C38.4247 33.0699 37.9069 31.8329 37.7014 30.3452C37.6356 29.8726 37.5986 29.4123 37.5986 28.9685C37.5986 26.5192 38.5479 24.6411 40.4219 23.3795C41.4781 22.6438 42.7726 22.1712 44.2603 21.9699C44.7493 21.9041 45.2548 21.8671 45.7562 21.8671C47.4658 21.8671 48.9329 22.2945 50.1206 23.1411C51.6575 24.2096 52.5863 25.8247 52.8781 27.9411C53.2192 30.2959 52.7425 32.2397 51.4603 33.711C49.9438 35.5069 47.7082 36.4192 44.8274 36.4192ZM45.1521 26.1616C45.0781 26.1616 45.0082 26.1658 44.9301 26.1781C44.2973 26.2685 43.8863 26.6055 43.6479 27.2342C43.4466 27.7808 43.3973 28.463 43.5 29.2562C43.9027 32.1 45.0534 32.1 45.4315 32.1C45.5178 32.1 45.6082 32.0959 45.7027 32.0836C46.311 31.989 47.1288 31.6562 47.1288 29.8521C47.1288 29.5274 47.0959 29.1658 47.0342 28.7712C46.9274 28.0027 46.7055 27.3699 46.3726 26.889C46.0315 26.4 45.6329 26.1616 45.1521 26.1616Z" fill="#3377CC"/>
<path d="M45.7521 22.2822C47.3795 22.2822 48.7562 22.6808 49.8781 23.4781C51.3288 24.489 52.1918 25.9932 52.4671 27.9986C52.7918 30.2425 52.3521 32.0589 51.148 33.4438C49.7014 35.1534 47.5891 36.0082 44.8233 36.0082C42.5548 36.0082 40.8 35.2603 39.5425 33.7603C38.7781 32.8644 38.2973 31.7096 38.1041 30.2918C38.0384 29.8356 38.0055 29.3959 38.0055 28.9726C38.0055 26.663 38.8849 24.9123 40.6438 23.7247C41.6548 23.0219 42.8712 22.574 44.3055 22.3808C44.8028 22.311 45.2836 22.2822 45.7521 22.2822ZM45.4274 32.5069C45.5343 32.5069 45.6411 32.4986 45.7521 32.4863C46.9397 32.3055 47.5356 31.426 47.5356 29.848C47.5356 29.5069 47.5028 29.1206 47.437 28.7014C47.3219 27.8712 47.0795 27.189 46.7055 26.6507C46.2904 26.0548 45.7726 25.7548 45.148 25.7548C45.0575 25.7548 44.9671 25.7589 44.8726 25.7712C44.0877 25.8822 43.5493 26.3219 43.2575 27.0904C43.0274 27.711 42.974 28.4507 43.0891 29.3096C43.3932 31.4425 44.1699 32.5069 45.4274 32.5069ZM45.7521 21.4603C45.2302 21.4603 44.7082 21.4973 44.1986 21.5671C42.6493 21.7767 41.2932 22.274 40.1795 23.0507C38.1986 24.3863 37.1877 26.3795 37.1877 28.9726C37.1877 29.4329 37.2247 29.9178 37.2945 30.411C37.5082 31.9685 38.0548 33.2795 38.9219 34.2945C40.3315 35.9753 42.3165 36.8301 44.8274 36.8301C47.8356 36.8301 50.1781 35.8685 51.7808 33.974C53.137 32.4164 53.6425 30.3616 53.2849 27.8795C52.9767 25.6521 51.9904 23.9425 50.3507 22.8C49.1014 21.9123 47.5521 21.4603 45.7521 21.4603ZM45.4274 31.6849C45.1356 31.6849 44.2562 31.6849 43.9028 29.1904C43.8082 28.4712 43.8493 27.8589 44.0301 27.3699C44.2151 26.889 44.5028 26.6507 44.9918 26.5808C45.0411 26.5726 45.0945 26.5726 45.148 26.5726C45.3822 26.5726 45.6945 26.6343 46.0315 27.1151C46.3274 27.5425 46.5247 28.1137 46.6233 28.8082C46.6849 29.1986 46.7178 29.5397 46.7178 29.8438C46.7178 31.5082 45.9863 31.6192 45.6329 31.6726C45.5712 31.6808 45.4973 31.6849 45.4274 31.6849Z" fill="#3377CC"/>
<path d="M40.8165 55.6068C40.1836 55.6068 39.5343 55.5822 38.8891 55.537C38.8028 55.537 28.5206 55.1712 22.6398 46.4137L22.6233 46.389L22.6028 46.3603C22.4877 46.1178 21.5219 43.9685 22.5781 42.8507C22.6808 42.7397 22.8781 42.6082 23.211 42.6082C23.7617 42.6082 24.5918 42.9904 25.2288 43.5411C25.4014 43.689 25.5904 43.9479 25.8822 44.3384C27.3452 46.311 30.7767 50.9342 38.6959 50.9342C38.9548 50.9342 39.2178 50.9301 39.485 50.9178C48.6082 50.5726 52.7384 46.3479 57.1069 41.8767C57.5548 41.4164 58.0028 40.9603 58.4589 40.5C58.7877 40.1712 59.4617 39.7849 60.2671 39.7849C60.9082 39.7849 61.5 40.0356 61.9809 40.5123C62.4617 40.9931 62.585 42.2466 61.9521 43.5123C61.9028 43.6397 55.5041 55.6068 40.8165 55.6068Z" fill="#3377CC"/>
<path d="M60.2795 40.2C60.748 40.2 61.2535 40.3603 61.7055 40.8082C62.0178 41.1205 62.1781 42.1644 61.5987 43.3315C60.8548 44.8151 54.3083 55.1918 40.8165 55.1918C40.2 55.1918 39.563 55.1712 38.9178 55.126C38.9178 55.126 28.8124 54.8671 22.9767 46.1836C22.9767 46.1836 21.9863 44.0753 22.8822 43.1301C22.9562 43.0521 23.0754 43.0151 23.2192 43.0151C23.6795 43.0151 24.4151 43.3726 24.9699 43.8493C25.8535 44.6055 29.0959 51.3452 38.7083 51.3452C38.9713 51.3452 39.2425 51.3411 39.5137 51.3288C49.7507 50.9425 53.848 45.7192 58.7672 40.7959C59.0425 40.5164 59.6261 40.2 60.2795 40.2ZM60.2795 39.3781C59.3466 39.3781 58.5658 39.826 58.1795 40.2123C57.7233 40.6726 57.2713 41.1329 56.8233 41.589C52.5124 45.9986 48.4398 50.1658 39.4809 50.5027C39.222 50.511 38.9589 50.5192 38.7083 50.5192C30.9946 50.5192 27.6535 46.0151 26.2233 44.0877C25.9151 43.6726 25.7137 43.3973 25.5041 43.2205C24.9083 42.7068 23.9713 42.189 23.2192 42.189C22.7384 42.189 22.4466 42.3904 22.2863 42.563C21.0452 43.8781 22.1096 46.2616 22.237 46.5288L22.2617 46.5863L22.2987 46.6397C28.2288 55.4671 38.2274 55.9233 38.8809 55.9438C39.5302 55.989 40.1836 56.0137 40.8206 56.0137C55.7589 56.0137 62.2767 43.8247 62.3384 43.7014C63.0822 42.2137 62.8685 40.8 62.2932 40.2247C61.722 39.674 61.0274 39.3781 60.2795 39.3781Z" fill="#3377CC"/>
<path d="M31.837 16.089C31.2987 16.089 30.8425 15.8425 30.5096 15.3822C30.3905 15.2384 29.7905 14.3014 31.274 11.9425C32.622 9.80137 40.0644 1.74247 51.8425 1.48768C52.0275 1.48357 52.2083 1.48357 52.3932 1.48357C64.5617 1.48357 67.1425 10.4014 67.3973 11.4164C67.7877 12.9822 67.2781 14.2562 65.922 15.1069C65.5932 15.3123 65.248 15.4151 64.8905 15.4151C63.937 15.4151 62.9549 14.6877 61.8823 13.1877C61.7877 13.0562 61.685 12.9082 61.574 12.7438C60.1233 10.6438 57.1069 6.27535 50.5768 6.16028H50.3713C42.6905 6.16028 35.359 13.8 35.285 13.8781C35.1124 14.0795 33.3699 16.089 31.837 16.089Z" fill="#3377CC"/>
<path d="M52.3973 1.89041C63.8631 1.89041 66.6206 9.9822 67.0028 11.511C67.3891 13.0644 66.7439 14.1 65.7083 14.7534C65.4453 14.9178 65.174 15 64.8946 15C64.0768 15 63.1891 14.2973 62.2233 12.9452C60.9288 11.1288 57.8466 5.87261 50.5891 5.74521C50.5192 5.74521 50.4494 5.74521 50.3754 5.74521C42.4192 5.74521 34.9891 13.5904 34.9891 13.5904C34.9891 13.5904 33.222 15.6822 31.837 15.6822C31.4631 15.6822 31.1179 15.5301 30.8466 15.148C30.8466 15.148 30.2261 14.3918 31.6275 12.1685C32.7042 10.4548 39.9329 2.16576 51.859 1.90274C52.0398 1.89452 52.2165 1.89041 52.3973 1.89041ZM52.3973 1.0685C52.2124 1.0685 52.0275 1.0685 51.8384 1.07261C39.8754 1.33562 32.3014 9.54247 30.9288 11.7247C29.3877 14.174 29.9384 15.3082 30.185 15.6329C30.5959 16.2 31.1672 16.5 31.837 16.5C33.4891 16.5 35.2233 14.5808 35.6014 14.137C35.9631 13.763 43.0316 6.56302 50.3754 6.56302C50.4412 6.56302 50.5069 6.56302 50.5727 6.56302C56.8891 6.67398 59.8275 10.9274 61.237 12.9699C61.3521 13.1343 61.4549 13.2863 61.5494 13.4178C62.7042 15.0329 63.7973 15.8178 64.8905 15.8178C65.3261 15.8178 65.7453 15.6945 66.1357 15.4479C67.6357 14.5069 68.2275 13.0397 67.796 11.3096C67.537 10.2658 64.874 1.0685 52.3973 1.0685Z" fill="#3377CC"/>
<path d="M38.2192 19.9521C38.1247 19.9521 38.0179 19.9438 37.9069 19.9233C37.5699 19.8699 37.311 19.6973 37.1507 19.4219C36.7768 18.7808 37.122 17.8027 37.1631 17.6918L37.1795 17.6425L37.2083 17.5973C39.5014 14.3301 43.4877 12.1356 47.1288 12.1356C49.9316 12.1356 52.5617 12.9863 54.9453 14.6589C56.1617 15.5137 57.485 17.2726 57.448 18.4233C57.4357 18.8096 57.2631 19.126 56.9672 19.3069C56.6877 19.4795 56.3959 19.5658 56.1 19.5658C55.3685 19.5658 54.9247 19.0315 54.8795 18.974C52.8987 16.426 49.4672 15.9904 47.5973 15.9575H47.4453C45.1398 15.9575 42.0535 16.9274 40.7096 18.0699C40.2699 18.4438 39.9576 18.7849 39.711 19.0562C39.2466 19.5575 38.885 19.9521 38.2192 19.9521Z" fill="#3377CC"/>
<path d="M47.1288 12.5507C50.7288 12.5507 53.285 13.9973 54.7069 15C56.211 16.0603 57.6699 18.3986 56.7494 18.9575C56.511 19.1055 56.2932 19.1589 56.0959 19.1589C55.5453 19.1589 55.1959 18.7192 55.1959 18.7192C53.0754 15.9945 49.4425 15.5795 47.5973 15.5466C47.5439 15.5466 47.4905 15.5466 47.437 15.5466C45.1644 15.5466 41.9302 16.4836 40.4343 17.7575C39.1973 18.8137 38.9836 19.5411 38.211 19.5411C38.137 19.5411 38.0548 19.5329 37.9644 19.5206C36.974 19.3603 37.537 17.8397 37.537 17.8397C39.7357 14.7164 43.5288 12.5507 47.1288 12.5507ZM47.1288 11.7288C43.2987 11.7288 39.2713 13.9397 36.8713 17.3671L36.8096 17.4534L36.7727 17.5521C36.6946 17.7617 36.3329 18.8425 36.7932 19.6315C37.0151 20.0096 37.385 20.2562 37.8411 20.3301C37.9727 20.3507 38.1001 20.363 38.2192 20.363C39.0658 20.363 39.5261 19.8617 40.011 19.3315C40.2658 19.0562 40.5535 18.7397 40.9768 18.3822C42.2343 17.3096 45.259 16.3644 47.4453 16.3644C47.4946 16.3644 47.5398 16.3644 47.5891 16.3644C49.3891 16.3973 52.6809 16.8082 54.5548 19.2206C54.6206 19.3027 55.1836 19.9767 56.1042 19.9767C56.474 19.9767 56.8398 19.8699 57.185 19.6562C57.6042 19.4014 57.8425 18.9699 57.8631 18.4397C57.9083 17.1411 56.5151 15.263 55.1877 14.326C52.7302 12.6041 50.022 11.7288 47.1288 11.7288Z" fill="#3377CC"/>
<path d="M41.5932 46.9644C41.3589 46.9644 41.1247 46.9562 40.8863 46.9438C36.0247 46.648 33.2466 44.1082 32.2726 43.0315C31.574 42.2507 30.8754 40.8945 30.9534 39.9164C30.9945 39.4438 31.2082 39.1808 31.3808 39.0411C31.5206 38.9301 31.7014 38.8726 31.911 38.8726C32.511 38.8726 33.4397 39.3329 34.7507 40.2822C37.1671 42.0247 40.0069 42.3082 41.1165 42.3493C41.2438 42.3534 41.4041 42.3575 41.5973 42.3575C43.8904 42.3575 47.2315 41.7206 50.1082 38.6753C50.2726 38.5027 51.748 36.9904 52.9849 36.9904C53.4822 36.9904 53.8808 37.2247 54.148 37.6603C54.2507 37.8329 55.0849 39.4151 52.5329 41.8808C50.5644 43.7795 46.5206 46.9644 41.5932 46.9644Z" fill="#3377CC"/>
<path d="M52.9891 37.4014C53.3096 37.4014 53.5932 37.5329 53.8028 37.874C54.0617 38.3014 54.2507 39.6575 52.2535 41.5849C49.8576 43.8945 46.0562 46.5534 41.5973 46.5534C41.3713 46.5534 41.1452 46.5452 40.9151 46.5329C36.1685 46.2411 33.4562 43.7219 32.585 42.7562C31.7137 41.7822 30.9329 39.9329 31.6439 39.3616C31.7014 39.3123 31.7918 39.2836 31.9192 39.2836C32.3178 39.2836 33.0946 39.5877 34.5206 40.6151C36.7932 42.2548 39.4521 42.6986 41.1124 42.7562C41.2439 42.7603 41.4083 42.7644 41.6055 42.7644C43.2699 42.7644 47.1206 42.4397 50.4124 38.9548C50.4083 38.9548 51.8918 37.4014 52.9891 37.4014ZM52.9891 36.5795C51.6124 36.5795 50.1042 38.0877 49.8165 38.3918C47.0384 41.3301 43.8165 41.9466 41.6055 41.9466C41.4206 41.9466 41.2644 41.9425 41.137 41.9384C40.0685 41.9014 37.3233 41.6301 34.9973 39.9493C33.1521 38.6178 32.3548 38.4616 31.9151 38.4616C31.5288 38.4616 31.274 38.6014 31.1261 38.7205C30.8877 38.9096 30.5959 39.263 30.5466 39.8836C30.4562 40.989 31.1918 42.4438 31.9685 43.3068C32.9754 44.4247 35.8521 47.0507 40.8617 47.3589C41.1042 47.3753 41.3507 47.3795 41.5932 47.3795C46.6685 47.3795 50.8069 44.1205 52.8206 42.1808C54.937 40.1384 55.048 38.3589 54.5055 37.4548C54.1644 36.8877 53.6261 36.5795 52.9891 36.5795Z" fill="#3377CC"/>
<path d="M161.108 32.3055C161.108 32.7699 160.944 33.1685 160.615 33.5014C160.286 33.8301 159.888 33.9945 159.423 33.9945C158.959 33.9945 158.56 33.8301 158.232 33.5014C157.903 33.1726 157.734 32.774 157.734 32.3055C157.734 31.837 157.899 31.4425 158.232 31.1137C158.56 30.7849 158.959 30.6205 159.423 30.6205C159.888 30.6205 160.286 30.7849 160.615 31.1137C160.944 31.4425 161.108 31.8411 161.108 32.3055ZM160.878 32.3055C160.878 31.9027 160.734 31.5575 160.451 31.2657C160.167 30.974 159.822 30.8301 159.419 30.8301C159.016 30.8301 158.671 30.974 158.388 31.2657C158.104 31.5534 157.96 31.8986 157.96 32.3055C157.96 32.7082 158.104 33.0534 158.388 33.3452C158.671 33.637 159.016 33.7808 159.419 33.7808C159.822 33.7808 160.167 33.637 160.451 33.3452C160.734 33.0575 160.878 32.7123 160.878 32.3055ZM160.508 33.1644H160.069L159.427 32.474H159.111V33.1644H158.786V31.3808H159.399C159.522 31.3808 159.621 31.389 159.699 31.3973C159.777 31.4055 159.855 31.4342 159.933 31.4712C160.015 31.5164 160.077 31.5699 160.114 31.6315C160.155 31.6931 160.171 31.7753 160.171 31.8657C160.171 31.9931 160.134 32.0959 160.064 32.1822C159.99 32.2685 159.888 32.3342 159.76 32.3836L160.508 33.1644ZM159.818 31.8904C159.818 31.8452 159.81 31.8041 159.793 31.7671C159.773 31.7301 159.744 31.6973 159.703 31.6767C159.662 31.6521 159.621 31.6397 159.575 31.6315C159.53 31.6233 159.473 31.6192 159.403 31.6192H159.111V32.2233H159.362C159.44 32.2233 159.514 32.2151 159.571 32.2027C159.629 32.1904 159.674 32.1699 159.715 32.1411C159.756 32.1082 159.785 32.0712 159.801 32.0342C159.81 31.9973 159.818 31.9479 159.818 31.8904Z" fill="white"/>
<path d="M147.83 34.0767C142.964 34.0767 141.173 30.9986 140.54 29.1658L140.515 29.0918C140.466 28.9356 139.471 25.5 141.156 22.5534C142.159 20.7986 143.897 19.6027 146.326 18.9986C147.218 18.7767 148.081 18.6658 148.886 18.6658C151.2 18.6658 153.111 19.5575 154.558 21.3123C155.947 22.9932 156.432 24.9699 156.386 25.1959C156.382 25.2288 156.399 25.3356 156.415 25.4178C156.485 25.8082 156.629 26.6178 155.614 26.9918C154.582 27.374 147.678 28.0726 146.277 28.2082C146.429 28.7343 146.934 30.0164 148.253 30.1027C148.488 30.1192 148.697 30.1233 148.882 30.1233C149.975 30.1233 150.169 29.889 150.395 29.6219C150.477 29.5233 150.514 29.4534 150.555 29.3836C150.785 28.989 151.044 28.6767 152.075 28.5822C153.345 28.4671 155.318 28.2329 155.338 28.2329L155.425 28.2411C155.445 28.2452 155.885 28.389 156.066 28.8164C156.193 29.1206 156.16 29.474 155.959 29.8726C155.445 30.9 153.879 34.0151 147.949 34.0767H147.83ZM148.364 22.4712C148.221 22.4712 148.073 22.4836 147.916 22.5041C147.062 22.6274 146.462 22.9438 146.137 23.4452C145.796 23.9712 145.837 24.5836 145.886 24.8753L150.506 24.2836C150.378 23.7699 149.906 22.4712 148.364 22.4712Z" fill="white"/>
<path d="M148.882 18.8753C154.775 18.8753 156.23 24.9082 156.181 25.163C156.123 25.4548 156.653 26.3918 155.54 26.8027C154.426 27.2137 146.018 28.0315 146.018 28.0315C146.018 28.0315 146.429 30.1932 148.237 30.3123C148.475 30.3288 148.689 30.3329 148.878 30.3329C150.111 30.3329 150.321 30.0288 150.575 29.7247C150.867 29.3712 150.814 28.9069 152.092 28.7918C153.378 28.6726 155.359 28.4384 155.359 28.4384C155.359 28.4384 156.3 28.7301 155.774 29.7822C155.244 30.8342 153.727 33.8137 147.945 33.8712C147.904 33.8712 147.867 33.8712 147.826 33.8712C142.143 33.8712 140.873 29.4863 140.7 29.0219C140.7 29.0219 138.366 21.1932 146.367 19.2041C147.284 18.974 148.122 18.8753 148.882 18.8753ZM145.726 25.1055L150.752 24.4644C150.752 24.4644 150.452 22.2658 148.364 22.2658C148.216 22.2658 148.056 22.2781 147.888 22.3027C145.023 22.7096 145.726 25.1055 145.726 25.1055ZM148.882 18.4644C148.06 18.4644 147.181 18.5795 146.273 18.8055C143.786 19.4219 142.007 20.6507 140.975 22.4548C139.249 25.4753 140.269 28.9932 140.314 29.1411L140.322 29.1658L140.347 29.2356C141.456 32.4452 144.185 34.2863 147.834 34.2863H147.958C154.015 34.2247 155.622 31.0233 156.148 29.9712C156.374 29.5151 156.411 29.1 156.259 28.7384C156.045 28.2329 155.544 28.0685 155.486 28.0479L155.318 28.0315C155.297 28.0356 153.329 28.2658 152.063 28.3808C150.933 28.4836 150.633 28.8493 150.382 29.2808C150.341 29.3507 150.304 29.4123 150.267 29.4616L150.243 29.4945C150.041 29.7329 149.885 29.9219 148.886 29.9219C148.701 29.9219 148.496 29.9137 148.27 29.9014C147.247 29.8356 146.762 28.9479 146.556 28.3932C148.484 28.2 154.681 27.5589 155.688 27.189C156.863 26.7534 156.69 25.7959 156.616 25.389C156.604 25.3315 156.592 25.2534 156.592 25.2247C156.637 24.8096 156.078 22.8411 154.714 21.189C153.243 19.4055 151.229 18.4644 148.882 18.4644ZM146.067 24.6452C146.047 24.3534 146.071 23.926 146.314 23.5521C146.606 23.1041 147.152 22.8206 147.945 22.7055C148.089 22.6849 148.229 22.6726 148.36 22.6726C149.577 22.6726 150.062 23.5644 150.243 24.111L146.067 24.6452Z" fill="#3377CC"/>
<path d="M133.122 32.7247C131.725 32.7247 129.432 32.3342 129.337 32.3178C129.304 32.3137 128.334 32.1699 128.01 31.0027C127.718 29.9589 125.195 19.463 125.088 19.0192C125.084 19.0027 124.927 18.4315 125.236 18.0247C125.425 17.774 125.737 17.6466 126.16 17.6466C126.222 17.6466 126.292 17.6507 126.362 17.6548L129.51 17.889L129.592 17.9137C129.715 17.9795 130.812 18.5753 130.812 19.3808C130.812 19.8781 131.696 24.1069 132.181 26.3671L134.795 19.4219C134.811 19.3767 135.193 18.4685 136.397 18.4685C136.434 18.4685 136.475 18.4685 136.512 18.4726C137.679 18.5301 139.377 18.7685 139.393 18.7685C139.422 18.7726 139.989 18.8712 140.252 19.2986C140.4 19.537 140.421 19.8205 140.318 20.1411C140.03 21.0781 135.481 31.2452 135.288 31.6767C135.284 31.6932 135.008 32.4123 133.862 32.6712C133.677 32.7082 133.434 32.7247 133.122 32.7247Z" fill="white"/>
<path d="M126.152 17.8521C126.21 17.8521 126.271 17.8562 126.337 17.8603L129.489 18.0945C129.489 18.0945 130.599 18.6781 130.599 19.3767C130.599 20.0753 132.119 27.0904 132.119 27.0904L134.979 19.4918C134.979 19.4918 135.312 18.6699 136.389 18.6699C136.422 18.6699 136.459 18.6699 136.496 18.674C137.667 18.7315 139.356 18.9699 139.356 18.9699C139.356 18.9699 140.412 19.1425 140.116 20.0753C139.829 21.0123 135.095 31.5904 135.095 31.5904C135.095 31.5904 134.86 32.2315 133.812 32.4658C133.636 32.5027 133.397 32.5192 133.118 32.5192C131.725 32.5192 129.366 32.1123 129.366 32.1123C129.366 32.1123 128.49 31.9932 128.203 30.9452C127.911 29.8932 125.281 18.9699 125.281 18.9699C125.281 18.9699 124.964 17.8521 126.152 17.8521ZM126.152 17.4411C125.54 17.4411 125.223 17.6918 125.067 17.9014C124.705 18.3822 124.87 19.0151 124.89 19.0849C124.993 19.5164 127.521 30.0123 127.812 31.0603C128.17 32.3589 129.271 32.5192 129.316 32.5233C129.399 32.5397 131.708 32.9343 133.122 32.9343C133.451 32.9343 133.705 32.9137 133.903 32.8685C135.074 32.6055 135.415 31.8986 135.477 31.7507C135.719 31.2082 140.223 21.1438 140.511 20.1986C140.659 19.7301 140.544 19.389 140.421 19.1918C140.116 18.6945 139.496 18.5795 139.426 18.5671C139.348 18.5548 137.692 18.3288 136.516 18.2671C136.471 18.263 136.43 18.263 136.389 18.263C135.049 18.263 134.614 19.2986 134.597 19.3397L132.226 25.6356C131.671 23.0137 131.01 19.7795 131.01 19.3767C131.01 18.4521 129.814 17.7986 129.678 17.7288L129.518 17.6836L126.366 17.4493C126.296 17.4452 126.222 17.4411 126.152 17.4411Z" fill="#3377CC"/>
<path d="M122.334 32.3096C121.233 32.3096 119.675 32.1986 119.663 32.1986L119.614 32.1863C119.568 32.1699 118.463 31.7877 118.397 30.7849C118.393 30.7397 118.389 30.7027 118.381 30.6699C117.937 31.163 116.671 32.2274 114.016 32.2274H113.823C111.058 32.1781 109.705 31.2781 109.06 30.5384C108.333 29.7 108.049 28.5781 108.218 27.2014C108.69 23.3753 112.611 23.1041 115.475 22.9068C117.082 22.7959 118.471 22.7014 118.533 22.0233C118.562 21.6986 118.484 21.4315 118.303 21.2301C118.036 20.9384 117.526 20.7699 116.905 20.7699C116.223 20.7699 115.5 20.9794 115.184 21.263C114.477 21.9041 113.466 21.9781 112.763 21.9781C112.607 21.9781 112.467 21.974 112.344 21.9699L112.216 21.9657C111.567 21.9452 110.647 21.8384 110.61 21.8342L110.56 21.8219C110.532 21.8096 109.866 21.5425 109.636 20.9548C109.512 20.6425 109.533 20.3055 109.701 19.9521C110.232 18.8384 111.818 17.4288 114.547 17.1288C114.962 17.0836 115.426 17.0589 115.919 17.0589C118.29 17.0589 121.249 17.6055 122.129 18.2014C122.223 18.2671 122.322 18.3288 122.416 18.3904C123.423 19.0438 124.459 19.7137 124.364 22.5082C124.262 25.4178 123.81 30.9945 123.805 31.052C123.81 31.4671 123.547 32.2931 122.507 32.3096H122.334ZM118.04 25.9027C116.622 26.2233 114.719 26.7616 114.469 27.0822C114.074 27.5877 114.255 28.2288 114.469 28.537C114.649 28.7959 115.032 28.9479 115.521 28.9479C115.816 28.9479 116.129 28.8945 116.416 28.7918C117.168 28.5205 117.879 27.9822 118.04 25.9027Z" fill="white"/>
<path d="M115.907 17.2644C118.348 17.2644 121.2 17.8233 122.001 18.3699C123.107 19.1137 124.249 19.5658 124.147 22.5C124.044 25.4384 123.588 31.0315 123.588 31.0315C123.588 31.0315 123.6 32.0836 122.49 32.1C122.437 32.1 122.384 32.1 122.33 32.1C121.221 32.1 119.671 31.989 119.671 31.989C119.671 31.989 118.652 31.6479 118.595 30.7726C118.574 30.4192 118.389 30.3205 118.389 30.3205C118.389 30.3205 117.316 32.026 114.004 32.026C113.942 32.026 113.877 32.026 113.815 32.026C112.644 32.0055 107.844 31.8329 108.411 27.226C109.138 21.3164 118.521 24.2753 118.726 22.0397C118.825 20.9589 117.879 20.5644 116.893 20.5644C116.153 20.5644 115.389 20.7863 115.032 21.111C114.395 21.6904 113.445 21.7726 112.751 21.7726C112.541 21.7726 112.356 21.7644 112.208 21.7603C111.563 21.7438 110.622 21.6288 110.622 21.6288C110.622 21.6288 109.356 21.1274 109.87 20.0384C110.384 18.9534 111.937 17.6219 114.551 17.3342C114.982 17.2849 115.438 17.2644 115.907 17.2644ZM115.525 29.1534C115.845 29.1534 116.182 29.0959 116.49 28.9849C117.292 28.6973 118.134 28.1178 118.262 25.6438C118.262 25.6438 114.74 26.4041 114.308 26.9548C113.877 27.5137 114.016 28.2452 114.3 28.6521C114.542 29.0014 115.011 29.1534 115.525 29.1534ZM115.907 16.8534C115.405 16.8534 114.937 16.8781 114.514 16.9233C111.699 17.2315 110.059 18.6986 109.504 19.8616C109.315 20.2603 109.29 20.6671 109.434 21.0288C109.693 21.6863 110.396 21.9822 110.474 22.011L110.577 22.0356C110.614 22.0397 111.542 22.1507 112.2 22.1712L112.327 22.1753C112.455 22.1795 112.599 22.1836 112.755 22.1836C113.49 22.1836 114.555 22.1055 115.315 21.4151C115.549 21.2014 116.186 20.9753 116.897 20.9753C117.46 20.9753 117.916 21.1192 118.142 21.3658C118.286 21.526 118.344 21.7315 118.319 22.0027C118.274 22.5082 116.84 22.6069 115.455 22.7014C112.521 22.9027 108.497 23.1822 108.008 27.1767C107.832 28.6151 108.132 29.7904 108.9 30.674C109.574 31.4466 110.971 32.3836 113.815 32.437C113.881 32.437 113.947 32.437 114.012 32.437C116.301 32.437 117.6 31.6562 118.237 31.0973C118.479 32.0137 119.499 32.3671 119.544 32.3836L119.647 32.4041C119.712 32.4082 121.225 32.5151 122.334 32.5151H122.499C123.604 32.4986 123.999 31.6397 124.003 31.0521C124.032 30.7068 124.463 25.3521 124.562 22.5164C124.66 19.6068 123.575 18.9 122.519 18.2178C122.425 18.1562 122.33 18.0945 122.232 18.0288C121.311 17.4041 118.356 16.8534 115.907 16.8534ZM115.525 28.7425C115.11 28.7425 114.781 28.6233 114.641 28.4219C114.468 28.1712 114.312 27.6247 114.633 27.2096C114.851 26.9712 116.355 26.511 117.81 26.1699C117.612 27.9904 116.959 28.3808 116.351 28.5986C116.092 28.689 115.796 28.7425 115.525 28.7425Z" fill="#3377CC"/>
<path d="M92.6384 32.7986C92.5768 32.7986 91.0973 32.7781 90.1316 30.8548C89.6137 29.8151 86.0548 21.5219 85.9028 21.1726C85.8946 21.1521 85.6685 20.6178 85.9398 20.0178C86.174 19.4959 86.6959 19.1014 87.4973 18.8425C87.8713 18.7192 87.9165 18.7027 87.9905 18.7027L88.0685 18.711C88.085 18.7151 88.1014 18.7192 88.159 18.7192C88.2863 18.7192 88.5042 18.6986 88.8083 18.6534L88.8576 18.6493C89.0548 18.6493 90.0617 18.7479 90.6124 20.6836C90.9 21.7027 92.3507 24.9904 92.9836 26.4L93.7562 20.8233C93.7809 19.8986 94.2494 18.0658 95.8233 17.8931C96.9699 17.7658 97.7959 17.7164 97.8206 17.7164C97.8206 17.7164 97.8617 17.7123 97.9316 17.7123C98.2809 17.7123 99.4316 17.8027 99.6124 18.9781L102.008 25.2411L103.064 18.2384C103.06 18.226 103.081 17.2068 104.766 17.0137C106.249 16.8452 107.186 16.7836 107.227 16.7836C107.227 16.7836 107.269 16.7794 107.334 16.7794C107.548 16.7794 107.943 16.8247 108.206 17.1164C108.399 17.3301 108.477 17.6301 108.436 18C108.321 19.1096 106.385 28.0973 106.307 28.4795C106.282 28.5781 105.719 30.7562 103.87 31.5616L103.808 31.5781L101.593 31.8L101.507 31.7959C101.441 31.7753 99.9042 31.2945 99.1028 29.289C98.7124 28.3151 97.7754 25.7425 97.2905 24.4192L96.711 29.3137C96.711 29.3219 96.6042 32.0137 94.2329 32.5849L92.6713 32.7945L92.6384 32.7986Z" fill="white"/>
<path d="M107.326 16.9849C107.589 16.9849 108.325 17.0671 108.226 17.9795C108.111 19.089 106.097 28.4342 106.097 28.4342C106.097 28.4342 105.559 30.6 103.779 31.3726L101.564 31.5945C101.564 31.5945 100.064 31.1425 99.2877 29.211C98.7493 27.8712 97.1836 23.5315 97.1836 23.5315L96.5014 29.289C96.5014 29.289 96.4274 31.8411 94.1795 32.3836L92.6384 32.589C92.6384 32.589 92.6384 32.589 92.6343 32.589C92.5685 32.589 91.2206 32.5644 90.3123 30.7562C89.7904 29.7082 86.0877 21.0822 86.0877 21.0822C86.0877 21.0822 85.4877 19.7014 87.5548 19.0274C87.8713 18.9247 87.9452 18.9 87.9863 18.9C88.0192 18.9 88.0356 18.9164 88.1548 18.9164C88.2617 18.9164 88.4589 18.9041 88.8329 18.8507C88.8329 18.8507 88.8411 18.8507 88.8534 18.8507C89.0055 18.8507 89.8973 18.9288 90.411 20.7329C90.7849 22.0685 93.0863 27.1274 93.0863 27.1274L93.9576 20.8438C93.9576 20.8438 94.0315 18.2918 95.8439 18.0904C97.011 17.9589 97.8288 17.9137 97.8288 17.9137C97.8288 17.9137 97.8658 17.9096 97.9274 17.9096C98.248 17.9096 99.263 17.9918 99.4069 19.0233L102.09 26.0384L103.262 18.263C103.262 18.263 103.262 17.3877 104.782 17.211C106.303 17.0384 107.236 16.9808 107.236 16.9808C107.236 16.9808 107.269 16.9849 107.326 16.9849ZM107.326 16.574C107.244 16.574 107.19 16.5822 107.19 16.5822C107.17 16.5822 106.249 16.6397 104.737 16.8123C103.056 17.0055 102.875 17.9959 102.855 18.226L101.918 24.4438L99.8096 18.9288C99.637 17.8849 98.7288 17.511 97.9315 17.511C97.8493 17.511 97.8 17.5151 97.8 17.5151C97.7754 17.5151 96.9658 17.5644 95.8028 17.6918C93.7397 17.9178 93.5671 20.5151 93.5507 20.8151L92.8767 25.6603C92.174 24.074 91.0521 21.5014 90.8096 20.6301C90.2219 18.5507 89.0795 18.4479 88.8576 18.4479C88.8206 18.4479 88.7959 18.4521 88.7959 18.4521C88.4096 18.5055 88.2329 18.5178 88.1548 18.5178C88.1343 18.5178 88.1219 18.5178 88.1137 18.5178C88.085 18.5137 88.0439 18.5014 87.9863 18.5014C87.8795 18.5014 87.8219 18.5219 87.4521 18.6411L87.4274 18.6493C86.5726 18.9288 86.0096 19.3603 85.7507 19.9356C85.4507 20.6055 85.685 21.1932 85.7137 21.2548C85.8658 21.6041 89.4247 29.9014 89.9466 30.9493C90.9493 32.9507 92.4658 33.0082 92.6343 33.0082L92.6918 33.0041L94.2329 32.7986L94.274 32.7904C96.2795 32.3055 96.8754 30.3247 96.9082 29.326L97.385 25.3069C97.8863 26.6836 98.5767 28.5575 98.9014 29.3712C99.7397 31.463 101.371 31.9767 101.437 31.9973L101.597 32.0137L103.812 31.7918L103.936 31.7589C105.875 30.9123 106.463 28.6397 106.488 28.5411C106.574 28.1466 108.51 19.1466 108.625 18.0288C108.67 17.5973 108.575 17.2479 108.341 16.9849C108.033 16.6274 107.573 16.574 107.326 16.574Z" fill="#3377CC"/>
<path d="M83.3631 33.0986C82.5042 33.0986 81.6165 33 81.5754 32.9959C81.5096 32.9836 80.211 32.7493 79.2946 31.3603C78.9083 30.7726 77.7576 28.8164 77.3672 28.1548L76.574 28.8575L76.5001 30.8753C76.4548 31.6027 76.0357 32.9712 74.7535 32.9712C74.7042 32.9712 74.6507 32.9712 74.5932 32.963L72.9001 32.9507C72.8261 32.9425 71.5275 32.811 70.9275 32.0507C70.6809 31.7384 70.5864 31.3685 70.6439 30.9534L70.9439 15.3945C70.9973 14.6178 71.4905 13.1671 72.9946 13.1671H73.0644C73.9357 13.1918 74.2644 13.2822 74.4042 13.3562C75.2672 13.4014 76.7877 13.9069 76.7549 15.526C76.7384 16.2904 76.6809 20.8356 76.6603 22.4548L78.9453 19.7589C78.9823 19.7137 79.9069 18.5877 81.2014 18.5877H81.2466C82.4754 18.6123 83.585 18.711 83.5932 18.711L83.6466 18.7233C83.6836 18.7356 84.5713 19.0726 84.8014 19.8C84.9247 20.1986 84.8302 20.626 84.5179 21.0699L81.522 24.2877L85.4055 30.4808C85.4343 30.5425 85.9028 31.5082 85.5329 32.2644C85.3398 32.6548 84.9699 32.9137 84.4316 33.0247C84.1727 33.0699 83.811 33.0986 83.3631 33.0986Z" fill="white"/>
<path d="M73.0069 13.3644C73.0274 13.3644 73.0521 13.3644 73.0726 13.3644C74.2439 13.3973 74.3466 13.5493 74.3466 13.5493C74.3466 13.5493 76.5987 13.6151 76.5617 15.5137C76.5411 16.4548 76.4631 23.0137 76.4631 23.0137L79.1179 19.8822C79.1179 19.8822 80.0055 18.7849 81.2179 18.7849C81.2302 18.7849 81.2466 18.7849 81.2589 18.7849C82.4918 18.8096 83.5932 18.9082 83.5932 18.9082C83.5932 18.9082 85.348 19.5534 84.3658 20.9425L81.2795 24.2507L85.2453 30.5753C85.2453 30.5753 86.1576 32.4411 84.3987 32.811C84.1192 32.8685 83.7494 32.889 83.3672 32.889C82.5083 32.889 81.6042 32.7863 81.6042 32.7863C81.6042 32.7863 80.3507 32.5726 79.4713 31.2411C79.011 30.5384 77.4247 27.8301 77.4247 27.8301L76.3809 28.7589L76.3028 30.863C76.3028 30.863 76.1877 32.7617 74.7617 32.7617C74.7165 32.7617 74.6672 32.7616 74.622 32.7575L72.9165 32.7411C72.9165 32.7411 70.6439 32.5233 70.8617 30.974L71.1617 15.3904C71.1576 15.3904 71.2973 13.3644 73.0069 13.3644ZM73.0069 12.9534C71.3507 12.9534 70.8083 14.5315 70.7507 15.3616L70.4507 30.9411C70.3932 31.4014 70.5042 31.8247 70.7795 32.1699C71.4206 32.9877 72.7316 33.1315 72.8754 33.148H72.9124L74.6055 33.1644C74.6589 33.1685 74.7124 33.1685 74.7658 33.1685C76.2 33.1685 76.6685 31.6726 76.7179 30.8836L76.7918 28.9438L77.3302 28.463C77.7987 29.2603 78.7809 30.9247 79.1343 31.463C80.0959 32.926 81.4809 33.1767 81.5384 33.189L81.559 33.1932C81.5959 33.1973 82.4959 33.3 83.3672 33.3C83.8274 33.3 84.2055 33.2712 84.4809 33.2137C85.237 33.0575 85.574 32.6548 85.7261 32.3425C86.1329 31.5123 85.6644 30.5096 85.611 30.3986L85.5905 30.3616L81.7932 24.3041L84.6658 21.226L84.6987 21.1849C85.1384 20.5644 85.1096 20.0548 85.011 19.7384C84.7603 18.9247 83.8357 18.5671 83.7329 18.5301L83.6302 18.5055C83.585 18.5014 82.5 18.4069 81.2672 18.3781H81.2179C79.8247 18.3781 78.8384 19.5781 78.7973 19.6274L76.8863 21.8836C76.911 19.9603 76.9562 16.2164 76.9727 15.5301C77.0096 13.7753 75.4151 13.2164 74.4699 13.1507C74.2685 13.0603 73.8822 12.9822 73.085 12.9575C73.0562 12.9534 73.0316 12.9534 73.0069 12.9534Z" fill="#3377CC"/>
<path d="M61.0767 34.6315C55.9603 34.6315 54.374 30.5507 53.9302 28.7959C53.4 26.7164 53.7124 24.4849 54.7726 22.8329C55.8904 21.0863 57.7439 19.9603 60.2836 19.4959C61.1137 19.3438 61.8987 19.2658 62.6219 19.2658C66.6165 19.2658 67.911 21.6082 68.4617 22.6069L68.5562 22.7754C68.7288 23.0795 68.7658 23.3877 68.6589 23.6877C68.4083 24.4151 67.4137 24.8301 67.3726 24.8466L67.3233 24.8589C67.3233 24.8589 66.8877 24.9164 65.2521 25.0973C65.1863 25.1055 65.1124 25.1096 65.0384 25.1096C64.3028 25.1096 63.3904 24.7274 63 23.8685C62.8685 23.5808 62.5603 23.4329 62.0836 23.4329C61.7795 23.4329 61.5288 23.4945 61.5247 23.4986C60.1356 23.889 59.7206 25.0849 59.7041 25.1343C59.6795 25.3151 59.6425 25.5288 59.6055 25.7466C59.3507 27.1849 59.1083 28.5411 60.7028 30.1192C61.0356 30.448 61.5452 30.637 62.0959 30.637C62.6713 30.637 63.2137 30.4315 63.5466 30.0863C63.8055 29.8192 63.9288 29.4863 63.9165 29.1C63.8795 27.9945 66.1069 27.863 66.3617 27.8507C66.3617 27.8507 67.4302 27.7521 67.8863 27.6945C67.9151 27.6904 67.9398 27.6904 67.9726 27.6904C68.3055 27.6904 68.7987 27.9206 69.1069 28.3562C69.2959 28.6274 69.4809 29.0753 69.2672 29.6712L69.1726 29.9507C68.6302 31.537 67.8863 33.711 62.7535 34.4959C62.1699 34.5863 61.611 34.6315 61.0767 34.6315Z" fill="white"/>
<path d="M62.6219 19.4671C66.7315 19.4671 67.874 21.9945 68.3754 22.874C68.9918 23.9589 67.2904 24.6534 67.2904 24.6534C67.2904 24.6534 66.8548 24.711 65.2233 24.8877C65.1617 24.8959 65.1 24.9 65.0343 24.9C64.4014 24.9 63.5425 24.5712 63.1849 23.7822C62.9795 23.3301 62.4863 23.2274 62.0795 23.2274C61.7425 23.2274 61.4712 23.2973 61.4712 23.2973C59.9466 23.7247 59.5069 25.0685 59.5069 25.0685C59.2685 26.7 58.6315 28.3644 60.5548 30.263C60.9534 30.6534 61.5247 30.8425 62.0918 30.8425C63.1274 30.8425 64.1548 30.226 64.1178 29.0959C64.0849 28.163 66.3699 28.0562 66.3699 28.0562C66.3699 28.0562 67.4466 27.9575 67.911 27.9C67.9274 27.8959 67.948 27.8959 67.9685 27.8959C68.4617 27.8959 69.4439 28.5616 69.0699 29.6014C68.4986 31.2206 68.026 33.4808 62.7165 34.2945C62.137 34.3849 61.5945 34.426 61.0808 34.426C56.8891 34.426 54.8589 31.611 54.1315 28.7466C53.3137 25.537 54.3082 20.8069 60.3206 19.6973C61.1754 19.537 61.9397 19.4671 62.6219 19.4671ZM62.6219 19.0562C61.8863 19.0562 61.0891 19.1342 60.2466 19.2904C57.6493 19.7712 55.7507 20.9219 54.6 22.7219C53.4945 24.4479 53.1781 26.6795 53.7329 28.8493C54.6986 32.6548 57.3781 34.837 61.0808 34.837C61.6233 34.837 62.1945 34.7918 62.7822 34.7014C68.0384 33.8959 68.8069 31.6562 69.3658 30.0164C69.3986 29.9219 69.4315 29.8274 69.4603 29.737C69.6493 29.211 69.5836 28.6767 69.2754 28.237C68.963 27.7932 68.4288 27.4849 67.9726 27.4849C67.9356 27.4849 67.8986 27.489 67.8658 27.4932C67.4096 27.5507 66.3493 27.6493 66.337 27.6493C65.9055 27.6699 63.6699 27.8342 63.711 29.1123C63.7233 29.4411 63.6165 29.7206 63.3986 29.9466C63.1028 30.2507 62.6137 30.4356 62.0959 30.4356C61.5986 30.4356 61.1425 30.2671 60.8466 29.9753C59.326 28.4753 59.5603 27.1685 59.8069 25.7836C59.8438 25.5781 59.8808 25.3767 59.9096 25.1712C59.9795 24.9904 60.3986 24.0288 61.5863 23.6959C61.5863 23.6959 61.8165 23.6425 62.0877 23.6425C62.4781 23.6425 62.7206 23.7493 62.8192 23.9589C63.2466 24.8959 64.2452 25.3192 65.0425 25.3192C65.1247 25.3192 65.2028 25.3151 65.2808 25.3069C66.8959 25.1301 67.3356 25.0726 67.3562 25.0685L67.4589 25.0397C67.574 24.9945 68.5891 24.5589 68.8644 23.7575C68.9877 23.4041 68.9466 23.0301 68.7452 22.6767C68.7165 22.6274 68.6877 22.574 68.6548 22.5123C68.0712 21.4726 66.7356 19.0562 62.6219 19.0562Z" fill="#3377CC"/>
<path d="M21.5466 35.3384C21.5302 35.3384 19.7055 35.1904 19.6973 33.3247L19.2288 17.7575C19.2288 17.7164 19.3973 15.863 21.4809 15.6205C21.9987 15.5589 22.459 15.5301 22.8494 15.5301C23.3302 15.5301 23.5398 15.5753 23.5603 15.5836C24.1685 15.7315 25.3028 16.311 25.2411 17.4699C25.2001 18.2301 25.311 20.9836 25.3644 22.1753C25.9685 21.489 27.3535 20.2767 29.5809 20.2767C29.811 20.2767 30.0453 20.289 30.2836 20.3178C33.8261 20.7123 34.911 23.7082 34.8864 24.6986C34.8617 25.5616 35.211 32.9589 35.211 33.0329C35.1905 33.6082 34.837 34.7342 33.6411 34.9973L31.2699 35.137C30.559 35.0712 29.2932 34.5616 29.3384 33.1068C29.3672 32.1822 29.2316 26.8356 29.2316 26.7822C29.2233 26.737 28.9603 25.0562 27.6494 25.0562C27.559 25.0562 27.4603 25.0644 27.3576 25.0808C26.1987 25.2781 25.5576 25.9562 25.4425 27.1068C25.4014 27.5548 25.4918 31.0849 25.5453 32.889C25.5453 32.9096 25.574 34.7795 23.4658 35.1L21.5836 35.3342L21.5466 35.3384Z" fill="white"/>
<path d="M22.8493 15.7356C23.3219 15.7356 23.511 15.7808 23.511 15.7808C23.511 15.7808 25.1055 16.163 25.0356 17.4575C24.9781 18.4521 25.1836 22.7425 25.1836 22.7425C25.1836 22.7425 26.6178 20.4863 29.5809 20.4863C29.7987 20.4863 30.0247 20.4986 30.2589 20.5233C33.6863 20.9055 34.7014 23.8151 34.6808 24.6945C34.6562 25.574 35.0055 33.0452 35.0055 33.0452C35.0055 33.0452 34.9562 34.5 33.5959 34.8L31.2576 34.9356C31.2576 34.9356 29.4904 34.763 29.5439 33.1192C29.5726 32.1781 29.437 26.7822 29.437 26.7822C29.437 26.7822 29.1576 24.8548 27.6493 24.8548C27.5466 24.8548 27.4398 24.863 27.3247 24.8836C25.537 25.1836 25.2945 26.511 25.2411 27.0904C25.1877 27.674 25.3439 32.8973 25.3439 32.8973C25.3439 32.8973 25.3891 34.6027 23.437 34.8986L21.563 35.1329C21.563 35.1329 19.911 35.0178 19.9028 33.3247L19.4343 17.7534C19.4343 17.7534 19.5658 16.0521 21.5055 15.8301C22.0973 15.7603 22.5329 15.7356 22.8493 15.7356ZM22.8493 15.3247C22.4507 15.3247 21.9822 15.3575 21.4562 15.4192C19.6562 15.6288 19.0767 17.0137 19.0233 17.7206V17.7658L19.4918 33.337C19.5 34.9685 20.8315 35.4945 21.5343 35.5438L21.6124 35.5397L23.4863 35.3055C25.3233 35.0301 25.7713 33.6 25.7507 32.8849C25.6891 30.7932 25.6069 27.5343 25.648 27.1274C25.7507 26.0712 26.3219 25.4671 27.3945 25.2863C27.4809 25.2699 27.5713 25.2658 27.6493 25.2658C28.7137 25.2658 28.9932 26.6343 29.0261 26.8192C29.0384 27.2425 29.1617 32.2233 29.1329 33.1027C29.0836 34.7055 30.4726 35.2685 31.2165 35.3425H31.2781L33.6165 35.2069L33.6822 35.1986C35.0014 34.9069 35.3918 33.6699 35.4124 33.0575V33.0247C35.4082 32.9507 35.063 25.5575 35.0877 24.7027C35.1124 23.663 33.9863 20.5233 30.3041 20.1123C30.0617 20.0836 29.8151 20.0712 29.5809 20.0712C27.6206 20.0712 26.2891 20.9753 25.5493 21.6863C25.4918 20.3589 25.4096 18.1397 25.4466 17.4781C25.5165 16.1836 24.2754 15.5384 23.6096 15.3781C23.5685 15.374 23.3466 15.3247 22.8493 15.3247Z" fill="#3377CC"/>
<path d="M9.80964 34.1836C9.30005 34.1836 8.76581 34.1589 8.21101 34.1137C4.8206 33.8055 2.39183 32.4616 0.994574 30.1233C0.287725 28.9356 0.0534785 28.0068 0.300054 27.3699C0.452109 26.9753 0.776766 26.7 1.2617 26.5479L1.348 26.5397L5.44526 27.0164C6.74389 27.2219 6.93704 27.789 7.09731 28.2452C7.16307 28.4342 7.21649 28.5863 7.34389 28.689C7.78773 29.0342 8.3343 29.2397 8.96718 29.3096C9.18499 29.326 9.39046 29.3383 9.58362 29.3383C11.3754 29.3383 11.437 28.537 11.4535 28.2781C11.4781 27.9904 11.2275 27.3945 9.23841 26.5479L6.00416 25.3808C2.8069 24.1931 1.18773 22.2904 1.18773 19.726C1.18773 18.411 1.49183 17.2726 2.09594 16.3397C3.06581 14.8233 4.66444 13.8781 6.83841 13.5329C7.50005 13.426 8.18225 13.3685 8.86444 13.3685C9.30005 13.3685 9.76444 13.389 10.2411 13.426C13.6316 13.7342 15.9535 14.9753 17.137 17.1205C17.6096 17.9753 18.0987 19.163 17.7329 19.9397C17.5727 20.2808 17.2727 20.4986 16.8411 20.5808L16.7795 20.5849L13.4548 20.1986L12.8014 20.1411C11.6918 19.9767 11.5973 19.4096 11.5233 18.9534C11.437 18.4274 11.3548 17.9301 9.6617 17.7781C9.5754 17.7699 9.4932 17.7657 9.41512 17.7657C8.35485 17.7657 7.72197 18.4027 7.66444 19.0027C7.63978 19.274 7.89868 19.8657 9.90827 20.737L13.1425 21.9041C16.3233 23.0877 17.9425 24.9411 17.959 27.4109C17.9795 29.1534 17.4699 30.6164 16.4425 31.7548C15.0042 33.3699 12.7727 34.1836 9.80964 34.1836Z" fill="white"/>
<path d="M8.86441 13.574C9.30825 13.574 9.76031 13.5945 10.2206 13.6315C13.537 13.9315 15.7932 15.1192 16.9521 17.2192C17.7904 18.7397 18.0206 20.1411 16.7959 20.3794L13.4713 19.9931L12.8137 19.9356C10.6767 19.6192 13.0028 17.8685 9.674 17.5767C9.58359 17.5685 9.49729 17.5644 9.41099 17.5644C8.23565 17.5644 7.52469 18.2918 7.45893 18.9863C7.40551 19.5699 8.19455 20.2192 9.82606 20.926C10.9069 21.3164 11.9877 21.7068 13.0726 22.0973C16.1754 23.2521 17.737 25.0233 17.7535 27.4151C17.774 29.1205 17.285 30.5178 16.2904 31.6192C14.885 33.1931 12.7233 33.9781 9.80962 33.9781C9.30414 33.9781 8.77811 33.9534 8.23154 33.9082C4.89044 33.6041 2.54387 32.3096 1.17537 30.0164C0.554824 28.9726 -0.238326 27.2301 1.32743 26.7411L5.42469 27.2178C7.15483 27.4931 6.68633 28.4178 7.21647 28.8452C7.69318 29.2151 8.27263 29.437 8.94661 29.5068C9.17263 29.5274 9.38633 29.5356 9.58359 29.5356C10.9028 29.5356 11.5973 29.1164 11.6589 28.2822C11.7124 27.6781 10.9315 27.0329 9.31647 26.3466C8.23565 25.9562 7.15072 25.5657 6.06989 25.1753C2.95072 24.0288 1.39318 22.2082 1.39318 19.726C1.39318 18.4479 1.68085 17.3589 2.26852 16.4507C3.20962 14.9794 4.7425 14.0753 6.87126 13.7342C7.50825 13.6315 8.17811 13.574 8.86441 13.574ZM8.86441 13.163C8.16989 13.163 7.47537 13.2205 6.8014 13.3274C4.56578 13.6808 2.92195 14.6589 1.91921 16.2247C1.29866 17.1904 0.982222 18.3699 0.982222 19.726C0.982222 22.389 2.64661 24.3534 5.93017 25.5657L7.59044 26.1657L9.16852 26.737C11.2028 27.6041 11.2603 28.1507 11.2521 28.2534C11.2356 28.5 11.1863 29.1329 9.58359 29.1329C9.39866 29.1329 9.19318 29.1247 8.97948 29.1041C8.39592 29.0425 7.88222 28.8493 7.46715 28.5247C7.39729 28.4671 7.35619 28.3603 7.29455 28.1794C7.13839 27.7274 6.90003 27.0411 5.49044 26.8192L1.37263 26.3384L1.20414 26.3548C0.653455 26.5274 0.283592 26.8438 0.110989 27.3C-0.160244 28.011 0.069893 28.9685 0.821948 30.2301C2.25619 32.6301 4.73428 34.0068 8.19455 34.3192C8.75346 34.3685 9.29592 34.3931 9.80962 34.3931C12.8343 34.3931 15.1151 33.5548 16.5946 31.8986C17.6548 30.7233 18.185 29.2151 18.1644 27.4151C18.148 24.8507 16.4836 22.9315 13.2165 21.7192L11.474 21.0904L9.97811 20.5521C7.91921 19.6562 7.86167 19.126 7.86989 19.0274C7.91921 18.5219 8.474 17.9794 9.4151 17.9794C9.48907 17.9794 9.56304 17.9836 9.64113 17.9877C11.1781 18.1233 11.2398 18.5055 11.3178 18.9904C11.3959 19.4548 11.511 20.1616 12.7562 20.3466L12.7809 20.3507L13.4384 20.4082L16.7507 20.7945L16.8781 20.7904C17.5028 20.6712 17.7863 20.3137 17.9178 20.0342C18.3165 19.1794 17.811 17.9301 17.3137 17.0301C16.0932 14.8233 13.7178 13.5452 10.2576 13.2288C9.77674 13.1836 9.30825 13.163 8.86441 13.163Z" fill="#3377CC"/>
<path d="M44.1699 34.7384C41.8521 34.7384 40.0233 33.9575 38.7329 32.4164C37.948 31.4918 37.4466 30.2918 37.2452 28.8452C37.1795 28.3849 37.1466 27.9288 37.1466 27.4973C37.1466 25.1219 38.0672 23.2973 39.8754 22.0767C40.9069 21.3575 42.1685 20.8973 43.6274 20.7C44.1083 20.6343 44.6055 20.6014 45.0987 20.6014C46.763 20.6014 48.1932 21.0164 49.3439 21.8343C50.8356 22.8699 51.7356 24.4397 52.0192 26.4945C52.3521 28.7918 51.8918 30.6822 50.6507 32.1041C49.1713 33.8507 46.9891 34.7384 44.1699 34.7384ZM44.4946 24.4767C44.4124 24.4767 44.3302 24.4808 44.248 24.4932C43.537 24.5959 43.0644 24.9822 42.7973 25.6808C42.5836 26.2603 42.5302 26.9754 42.637 27.8055C42.9247 29.8397 43.6233 30.826 44.7699 30.826C44.8644 30.826 44.9672 30.8178 45.0658 30.8055C46.1466 30.6411 46.6726 29.8438 46.6726 28.3685C46.6726 28.0356 46.6398 27.6575 46.574 27.2507C46.463 26.4534 46.2288 25.7918 45.8795 25.2822C45.5014 24.7397 45.0493 24.4767 44.4946 24.4767Z" fill="white"/>
<path d="M45.0945 20.8027C46.7219 20.8027 48.0987 21.2014 49.2206 21.9986C50.6713 23.0096 51.5343 24.5137 51.8096 26.5192C52.1343 28.7671 51.6945 30.5836 50.4904 31.9685C49.0439 33.6781 46.9315 34.5329 44.1658 34.5329C41.8973 34.5329 40.1425 33.7849 38.885 32.2849C38.1206 31.389 37.6398 30.2343 37.4466 28.8164C37.3808 28.3603 37.348 27.9206 37.348 27.4973C37.348 25.1836 38.2274 23.4329 39.9863 22.2452C40.9973 21.5425 42.2137 21.0945 43.648 20.9014C44.1452 20.8315 44.6261 20.8027 45.0945 20.8027ZM44.7699 31.0315C44.8767 31.0315 44.9836 31.0233 45.0945 31.011C46.2822 30.8301 46.8781 29.9507 46.8781 28.3726C46.8781 28.0315 46.8452 27.6452 46.7795 27.226C46.6644 26.3918 46.4219 25.7096 46.048 25.1712C45.6329 24.5753 45.1151 24.2753 44.4904 24.2753C44.4 24.2753 44.3096 24.2795 44.2151 24.2959C43.4302 24.4069 42.8918 24.8466 42.6 25.6151C42.3699 26.2356 42.3165 26.9753 42.4315 27.8384C42.7356 29.9671 43.5124 31.0315 44.7699 31.0315ZM45.0945 20.3918C44.5932 20.3918 44.0877 20.4247 43.5945 20.4945C42.1069 20.6959 40.8165 21.1685 39.7521 21.9082C37.8863 23.1658 36.937 25.048 36.937 27.4973C36.937 27.937 36.9699 28.4014 37.0398 28.8781C37.2452 30.3616 37.7589 31.5986 38.5726 32.5562C39.9 34.1425 41.7822 34.948 44.1658 34.948C47.0507 34.948 49.2822 34.0356 50.8069 32.2356C52.085 30.7685 52.5576 28.8247 52.2206 26.4616C51.9288 24.3493 51 22.7343 49.4589 21.6616C48.2754 20.8192 46.8082 20.3918 45.0945 20.3918ZM44.7699 30.6206C44.3918 30.6206 43.2411 30.6206 42.8384 27.7726C42.7315 26.9836 42.785 26.3014 42.9863 25.7507C43.2247 25.126 43.6356 24.789 44.2726 24.6945C44.3425 24.6863 44.4165 24.6822 44.4904 24.6822C44.9754 24.6822 45.374 24.9164 45.711 25.4014C46.0439 25.8822 46.2658 26.5151 46.3726 27.2753C46.4384 27.6781 46.4671 28.0438 46.4671 28.3685C46.4671 30.1767 45.6493 30.5096 45.0329 30.6041C44.9507 30.6164 44.8562 30.6206 44.7699 30.6206Z" fill="#3377CC"/>
<path d="M40.159 53.926C39.5302 53.926 38.885 53.9014 38.2439 53.8562C38.1494 53.8521 27.974 53.4945 22.1466 44.8233C22.0891 44.7041 21.0905 42.5507 22.0727 41.5151C22.1836 41.3959 22.348 41.3384 22.5576 41.3384C23.0631 41.3384 23.8357 41.7 24.4398 42.2219C24.5918 42.3534 24.7891 42.6205 25.0645 42.9863C26.548 44.9836 30.0206 49.6644 38.0425 49.6644C38.3014 49.6644 38.5686 49.6603 38.8398 49.6479C48.0453 49.2986 52.2042 45.0493 56.6014 40.5493C57.0494 40.0931 57.4973 39.6329 57.9535 39.1767C58.2782 38.8521 58.9193 38.5233 59.6179 38.5233C60.2014 38.5233 60.7439 38.7534 61.1877 39.1931C61.6069 39.6123 61.7014 40.7877 61.1179 41.9548C61.0645 42.0699 54.7234 53.926 40.159 53.926Z" fill="white"/>
<path d="M59.622 38.7247C60.0905 38.7247 60.5959 38.8849 61.048 39.3329C61.3603 39.6452 61.5206 40.689 60.9411 41.8562C60.1973 43.3397 53.6507 53.7164 40.159 53.7164C39.5425 53.7164 38.9055 53.6959 38.2603 53.6507C38.2603 53.6507 28.1548 53.3918 22.3192 44.7082C22.3192 44.7082 21.3288 42.6 22.2247 41.6548C22.2987 41.5767 22.4179 41.5397 22.5617 41.5397C23.022 41.5397 23.7576 41.8973 24.3124 42.374C25.1959 43.1301 28.4384 49.8699 38.0507 49.8699C38.3137 49.8699 38.585 49.8658 38.8562 49.8534C49.0932 49.4671 53.1905 44.2438 58.1096 39.3206C58.385 39.037 58.9685 38.7247 59.622 38.7247ZM59.622 38.3137C58.8124 38.3137 58.1425 38.7 57.8137 39.0288C57.3576 39.4849 56.9096 39.9452 56.4617 40.4055C52.0932 44.8767 47.9631 49.1014 38.8398 49.4466C38.5768 49.4548 38.3096 49.463 38.0507 49.463C30.1316 49.463 26.7001 44.8397 25.237 42.8671C24.9453 42.4726 24.7521 42.2137 24.5836 42.0699C23.9466 41.5192 23.1165 41.137 22.5658 41.137C22.2288 41.137 22.0357 41.2685 21.9288 41.3795C20.8727 42.4932 21.8384 44.6466 21.9535 44.889L21.9822 44.9425C27.8672 53.7041 38.1494 54.0658 38.2521 54.0658C38.8809 54.111 39.5302 54.1315 40.1631 54.1315C54.8548 54.1315 61.2535 42.1644 61.311 42.0452C61.9439 40.7795 61.8247 39.526 61.3439 39.0452C60.8548 38.5644 60.2631 38.3137 59.622 38.3137Z" fill="#3377CC"/>
<path d="M31.1794 14.4041C30.7068 14.4041 30.3164 14.1945 30.0205 13.7836C29.9548 13.7055 29.3548 12.8589 30.7931 10.574C32.1288 8.44932 39.5055 0.468499 51.1931 0.213704C51.3781 0.209595 51.5589 0.209595 51.7356 0.209595C63.7479 0.209595 66.2918 8.98768 66.5425 9.98631C66.9082 11.4575 66.4315 12.6534 65.1575 13.4507C64.8616 13.6356 64.5534 13.726 64.237 13.726C63.3575 13.726 62.4288 13.0274 61.3973 11.5849C61.3027 11.4534 61.2 11.3055 61.089 11.1452C59.6178 9.01644 56.5603 4.59042 49.9274 4.47124H49.7178C41.9425 4.47124 34.5575 12.1726 34.4836 12.2507C34.4178 12.3288 32.6425 14.4041 31.1794 14.4041C31.1794 14.4041 31.1836 14.4041 31.1794 14.4041Z" fill="white"/>
<path d="M51.7397 0.410959C63.2055 0.410959 65.963 8.50274 66.3452 10.0315C66.7315 11.5849 66.0863 12.6205 65.0507 13.274C64.7877 13.4384 64.5164 13.5205 64.237 13.5205C63.4192 13.5205 62.5315 12.8178 61.5658 11.4658C60.2712 9.64932 57.189 4.39315 49.9315 4.26575C49.8616 4.26575 49.7918 4.26575 49.7178 4.26575C41.7616 4.26575 34.3315 12.111 34.3315 12.111C34.3315 12.111 32.5644 14.2027 31.1795 14.2027C30.8055 14.2027 30.4603 14.0507 30.189 13.6685C30.189 13.6685 29.5685 12.9123 30.9699 10.689C32.0466 8.97534 39.2753 0.686301 51.2014 0.423288C51.3822 0.410959 51.5589 0.410959 51.7397 0.410959ZM51.7397 0C51.5589 0 51.3781 0 51.189 0.00410959C39.411 0.263014 31.9685 8.31781 30.6205 10.463C29.174 12.7603 29.7082 13.7096 29.8603 13.9068C30.189 14.363 30.6493 14.6055 31.1795 14.6055C32.6918 14.6055 34.4055 12.6493 34.6397 12.3781C34.9069 12.0986 42.1438 4.66849 49.7178 4.66849C49.7877 4.66849 49.8534 4.66849 49.9233 4.66849C56.4534 4.78356 59.4699 9.15205 60.9206 11.2521C61.0315 11.4164 61.1384 11.5644 61.2288 11.6959C62.3014 13.1959 63.2836 13.9233 64.237 13.9233C64.5945 13.9233 64.9397 13.8205 65.2644 13.6151C66.6205 12.7644 67.1301 11.4904 66.7438 9.92466C66.489 8.91781 63.9082 0 51.7397 0Z" fill="#3377CC"/>
<path d="M37.5616 18.2671C37.4753 18.2671 37.3849 18.2589 37.2822 18.2425C37.011 18.1973 36.7973 18.0575 36.6699 17.8397C36.3452 17.2808 36.6575 16.3849 36.6945 16.2863L36.7192 16.2411C38.9753 13.0274 42.8918 10.8658 46.4712 10.8658C49.2329 10.8658 51.8219 11.7041 54.1685 13.3521C55.3397 14.1781 56.6178 15.8877 56.5849 16.9397C56.5726 17.2603 56.4411 17.5068 56.2027 17.6548C55.9521 17.8068 55.6973 17.8849 55.4425 17.8849C54.7973 17.8849 54.3986 17.3918 54.3822 17.3671C52.3521 14.7534 48.8466 14.3055 46.9438 14.2726H46.7877C44.4411 14.2726 41.2932 15.263 39.9205 16.4342C39.4685 16.8164 39.1562 17.1616 38.9014 17.437C38.4575 17.9178 38.137 18.2671 37.5616 18.2671Z" fill="white"/>
<path d="M46.4712 11.0712C50.0712 11.0712 52.6274 12.5178 54.0493 13.5206C55.5534 14.5808 57.0123 16.9192 56.0918 17.4781C55.8534 17.626 55.6356 17.6795 55.4384 17.6795C54.8877 17.6795 54.5384 17.2397 54.5384 17.2397C52.4178 14.5151 48.7849 14.1 46.9397 14.0671C46.8863 14.0671 46.8329 14.0671 46.7795 14.0671C44.5069 14.0671 41.2726 15.0041 39.7767 16.2781C38.5397 17.3343 38.326 18.0616 37.5534 18.0616C37.4795 18.0616 37.3973 18.0534 37.3069 18.0411C36.3165 17.8808 36.8795 16.3603 36.8795 16.3603C39.0781 13.2329 42.8712 11.0712 46.4712 11.0712ZM46.4712 10.6603C42.826 10.6603 38.8397 12.8548 36.5507 16.1219L36.5014 16.2164C36.4603 16.3274 36.1151 17.3055 36.4891 17.9466C36.6493 18.2219 36.9123 18.3945 37.2452 18.4479C37.3521 18.4644 37.4589 18.4726 37.5575 18.4726C38.2233 18.4726 38.5891 18.0781 39.0493 17.5767C39.3 17.3055 39.6082 16.9685 40.048 16.5904C41.3918 15.4438 44.4781 14.4781 46.7836 14.474C46.8329 14.474 46.8863 14.474 46.9356 14.474C48.8055 14.5069 52.237 14.9425 54.2178 17.4863C54.2671 17.5521 54.7151 18.0822 55.4425 18.0822C55.7343 18.0822 56.026 17.9959 56.3096 17.8233C56.6055 17.6425 56.7781 17.3301 56.7904 16.9397C56.8274 15.789 55.5041 14.0343 54.2877 13.1753C51.9041 11.5069 49.2781 10.6603 46.4712 10.6603Z" fill="#3377CC"/>
<path d="M40.9356 45.2836C40.7055 45.2836 40.4754 45.2753 40.2411 45.263C35.4575 44.9712 32.7247 42.4767 31.7712 41.4164C31.0932 40.6562 30.4315 39.3411 30.5055 38.4534C30.5301 38.1329 30.6493 37.8863 30.8548 37.7219C30.9575 37.6397 31.0932 37.5986 31.2575 37.5986C31.8041 37.5986 32.7206 38.0589 33.9781 38.9671C36.4397 40.7425 39.3288 41.0301 40.4589 41.0712C40.5863 41.0753 40.7507 41.0794 40.9438 41.0794C43.2781 41.0794 46.6767 40.4301 49.6027 37.3356C49.6644 37.2699 51.1603 35.7164 52.3315 35.7164C52.7507 35.7164 53.0918 35.9137 53.3178 36.2877C53.4123 36.4438 54.1767 37.8986 51.7356 40.2534C49.7877 42.1356 45.7932 45.2836 40.9356 45.2836Z" fill="white"/>
<path d="M52.3315 35.9219C52.6521 35.9219 52.9356 36.0534 53.1452 36.3945C53.4041 36.8219 53.5932 38.1781 51.5959 40.1055C49.2 42.4151 45.3986 45.074 40.9397 45.074C40.7137 45.074 40.4877 45.0657 40.2575 45.0534C35.511 44.7616 32.7986 42.2425 31.9274 41.2767C31.0562 40.3027 30.2753 38.4534 30.9863 37.8822C31.0438 37.8329 31.1342 37.8041 31.2616 37.8041C31.6603 37.8041 32.437 38.1082 33.863 39.1356C36.1356 40.7753 38.7945 41.2192 40.4548 41.2767C40.5863 41.2808 40.7507 41.2849 40.9479 41.2849C42.6123 41.2849 46.463 40.9603 49.7548 37.4753C49.7548 37.4794 51.2342 35.9219 52.3315 35.9219ZM52.3315 35.511C51.0945 35.511 49.6192 37.0233 49.4548 37.1918C46.5781 40.2329 43.237 40.874 40.9438 40.874C40.7507 40.874 40.5904 40.8699 40.463 40.8657C39.3575 40.8247 36.5137 40.5452 34.0973 38.7986C32.7863 37.8493 31.8575 37.389 31.2575 37.389C31.0438 37.389 30.863 37.4466 30.7274 37.5575C30.5548 37.6973 30.3411 37.9603 30.3 38.4329C30.2178 39.411 30.9164 40.7671 31.6151 41.5479C32.5849 42.6247 35.3671 45.1644 40.2288 45.4644C40.463 45.4808 40.7014 45.4849 40.9356 45.4849C45.863 45.4849 49.9069 42.3 51.8795 40.4014C54.4356 37.9356 53.6014 36.3534 53.4986 36.1808C53.2274 35.7452 52.8247 35.511 52.3315 35.511Z" fill="#3377CC"/>
</g>
<defs>
<clipPath id="clip0_108_37">
<rect width="161.938" height="57" fill="white"/>
</clipPath>
</defs>
</svg>
